<svg width="385" height="134" viewBox="0 0 385 134" fill="none" xmlns="http://www.w3.org/2000/svg">
<path d="M33.65 51.08C33.51 50.78 33.38 50.76 33.16 51.02C32.92 51.3 32.72 51.6 32.53 51.92C32.32 52.27 32.33 52.42 32.64 52.68C33.09 53.05 33.42 53.49 33.65 54.02C33.78 54.31 33.97 54.57 34.17 54.82C34.27 54.94 34.42 55.02 34.58 54.97C34.72 54.93 34.75 54.79 34.76 54.71C34.79 54.37 34.71 54.09 34.71 53.81C34.71 53.62 34.65 53.48 34.49 53.36C34.16 53.11 33.96 52.79 33.99 52.33C34.02 51.89 33.85 51.47 33.66 51.08H33.65Z" fill="#014E42"/>
<path d="M14.89 85.06C15.32 85.17 15.46 85.08 15.45 84.62C15.41 84.14 15.82 83.66 16.13 83.39C16.28 83.42 16.25 83.56 16.27 83.67C16.22 84.18 16.58 83.94 16.9 83.98C16.94 83.86 17 83.72 17.07 83.54C17.37 82.78 17.63 82.01 17.91 81.24C18.3 80.19 18.7 79.14 19.08 78.08C19.4 77.19 19.58 76.26 19.81 75.34C19.95 74.79 20.13 74.26 20.22 73.69C20.39 72.63 20.57 71.57 20.8 70.51C21 69.6 21.25 68.7 21.4 67.77C21.45 67.47 21.42 67.2 21.17 67C21 66.87 20.96 66.69 20.98 66.49C21 66.29 21.04 66.09 21.1 65.9C21.32 65.24 21.73 64.68 22.11 64.11C22.79 63.1 23.23 62.01 23.36 60.79C23.38 60.61 23.41 60.44 23.45 60.27C23.68 59.4 24.07 58.58 24.35 57.73C24.45 57.43 24.5 57.15 24.35 56.87C24.12 56.44 24.11 55.96 24.05 55.5C23.96 54.72 24.16 54.08 24.83 53.62C24.87 53.59 24.9 53.56 24.93 53.52C25.03 53.37 25.01 53.23 24.88 53.11C24.79 53.03 24.68 52.98 24.56 52.97C23.8 52.87 23.23 52.42 22.73 51.9C22.4 51.55 22.17 51.13 22.26 50.61C22.31 50.33 22.36 50.05 22.46 49.78C22.82 48.78 23.34 47.92 24.47 47.62C25.21 47.42 25.92 47.41 26.48 48.04C26.67 48.25 26.87 48.29 27.11 48.19C27.32 48.11 27.5 48.15 27.68 48.27C27.97 48.46 28.26 48.63 28.55 48.81C29.05 49.11 29.17 49.37 29.05 49.91C29.35 50.14 29.55 50.14 29.79 49.9C29.93 49.75 30.04 49.59 30.08 49.38C30.15 49.06 30.22 48.74 30.25 48.4C30.29 47.93 30.35 47.46 30.54 47.02C30.68 46.71 30.71 46.39 30.69 46.05C30.66 45.37 30.65 44.69 30.8 44C30.95 43.31 30.98 42.59 30.91 41.88C30.85 41.28 30.66 40.73 30.47 40.17C30.3 39.67 30.3 39.2 30.61 38.75C30.89 38.34 30.95 37.9 30.83 37.43C30.7 36.94 30.61 36.44 30.53 35.94C30.45 35.42 30.38 34.88 30.23 34.37C29.96 33.42 29.86 32.45 29.64 31.49C29.35 30.2 29.07 28.91 28.85 27.6C28.71 26.76 28.5 25.93 27.63 20.56C27.35 20.14 27.1 19.68 26.55 19.6C25.62 19.21 26.23 17.94 24.69 17.96C24.24 17.92 24.04 17.71 24.05 17.26C23.66 16.81 22.96 16.38 22.42 16C21.93 15.68 21.95 14.84 21.19 14.88C20.98 14.88 20.87 14.83 20.94 14.59C20.98 13.85 20.17 13.99 19.73 14.21C20.43 13.72 18.39 12.47 18.77 13.39C19.2 13.73 19.86 14.33 19.56 14.92C19.35 14.98 18.69 14.18 18.83 14.87C19.3 15.78 19.42 15.05 19.85 15.42C19.83 16.22 18.46 15.74 18.49 16.51C18.74 16.77 19.19 16.15 19.46 16.3C19.82 16.57 20.83 16.11 20.5 16.86C20.06 17.54 22.28 17.64 21.24 17.05C20.73 16.56 21.7 16.9 21.95 16.98C22.18 16.95 22.4 16.97 22.37 17.26C22.35 17.49 22.66 17.64 22.53 17.85C22.55 19.78 21.15 18.73 22.55 20.47C22.66 20.59 22.49 20.81 22.37 20.62C21.93 20.05 21.34 21.18 21.91 21.43C22.66 22.21 21.85 20.36 22.55 21.1C22.65 21.51 22.89 22.82 22.38 22.93C21.97 23.12 22.64 23.58 22.9 23.76C23.46 23.97 22.44 24.14 22.84 24.45C23.1 24.78 23.3 24.68 23.39 24.31C23.72 25 25.47 24.75 24.6 25.75C24.11 25.86 23.64 24.88 23.55 25.88C23.5 26.49 23.07 26.05 23.17 25.62C23 24.76 21.76 25.85 21.17 25.56C21.01 25.56 21.03 26.22 20.75 26.03C20.05 25.55 18.32 26.07 19.7 26.75C20.1 27.16 19.32 27.32 19.15 26.91C18.7 26.3 18.54 26 18.46 26.87C18.23 26.85 18.24 26.41 18.1 26.25C17.95 25.81 17.49 26.07 17.71 26.43C18.19 27 17.42 26.95 17.04 27.13C16.14 27.92 17.33 27.77 17.75 27.28C17.89 27.19 18.05 27.14 18.16 27.29C18.64 27.49 18.66 27.49 18.18 27.9C17.42 29.82 20.07 27.07 19.72 27.89C19.18 28.41 18.74 28.63 19.41 29.19C19.32 29.57 18.65 29.26 18.53 29.55C18.53 30.12 18.89 30.87 18.39 31.23C17.76 32.18 18.56 32.07 18.82 31.16C19.58 30.42 18.92 32.02 19.41 32.13C20.41 31.06 19.81 32.89 20.52 32.42C20.68 32.05 20.97 32.51 20.82 32.73C20.78 32.85 20.67 32.87 20.57 32.8C20.18 32.47 20.07 33.39 20.52 33.3C21.19 33.18 20.95 34.52 20.54 34.52C19.86 34.35 20.06 35.36 19.48 35.26C19.05 35.12 19.74 34.52 19.31 34.38C18.95 34.29 19.22 35.44 18.85 34.81C18.71 34.33 18.22 34.74 18.37 35.1C18.42 35.34 19.2 35.18 18.77 35.53C18.35 36.04 17.41 34.95 17.21 35.36C16.65 36.07 15.75 35.04 15.6 35.8C15.17 35.93 15.37 36.49 15.68 36.08C16.24 35.46 17.07 36.7 17.63 36.84C17.4 37.17 17.11 36.48 16.88 36.71C16.56 36.94 16.17 36.43 15.95 36.93C15.8 37.42 15.12 36.84 15.11 37.44C14.94 37.85 12.95 37.77 13.41 38.67C13.57 38.79 13.67 38.6 13.72 38.49C13.85 38.15 14.18 38.12 14.45 37.98C14.83 37.83 14.86 38.3 14.55 38.45C14.31 38.72 14.76 39.07 14.9 38.71C15.61 38.13 15.44 39.1 15.83 37.82C16.8 38.5 15.42 38.97 15.33 39.49C15.34 40.04 14.43 39.66 14.76 40.37C14.96 40.78 14.38 40.87 14.48 40.41C14.49 39.8 13.07 40.88 13.58 41.21C13.89 41.1 13.91 40.46 14.34 40.75C14.84 40.92 14.47 41.34 14.49 41.71C14.69 42.25 13.41 42.02 14.13 42.44C14.62 42.4 13.67 43.73 14.09 44.1C14.59 44.25 14.55 43.14 15.06 43.34C15.19 43.52 14.85 43.78 14.96 44.02C15.18 44.32 14.6 44.54 14.85 44.77C15.3 44.74 15.52 43.94 15.38 43.52C15.76 42.6 15.62 44.64 16.14 44.67C17.27 44.95 16.66 46.36 17.48 46.24C18.87 45.41 16.58 47.68 18.4 47.49C18.59 47.46 18.79 47.45 18.83 47.68C18.79 48.19 17.69 47.94 18.08 48.7C18.16 48.82 18.3 48.8 18.33 48.7C18.45 48.32 19.04 48.66 19.09 48.19C19.09 48.14 19.23 48.19 19.27 48.26C19.35 48.87 19.8 49.05 20.1 49.56C20.18 49.96 19.04 49.86 18.74 50.02C18.23 50.15 18.18 49.34 17.63 49.54C17.12 48.62 16.5 49.27 16.26 48.63C16.21 47.92 15.39 48.3 15.1 47.93C14.94 47.49 14.59 47.24 14.22 47C14.01 46.51 11.93 43.22 11.28 43.69C10.96 44.06 12.5 44.28 11.69 44.36C11.57 44.36 11.44 44.32 11.39 44.46C11.33 44.67 11.57 44.74 11.72 44.81C12.56 45.22 11.21 45.56 11.46 46.07C11.9 46.29 12.9 46.21 13.1 46.73C12.38 46.76 12.36 46.78 12.5 47.36C12.13 47.38 11.29 47.34 11.24 47.78C11.8 47.79 12.99 48.07 12.43 48.94C12.21 49.31 11.91 48.7 11.69 48.96C11.3 50.69 12.76 48.53 13.43 49.42C13 49.62 12.48 49.48 12.2 49.95C12.58 49.97 12.67 51.07 12.98 50.48C13.12 49.94 13.55 50.22 13.13 50.59C12.92 50.86 12.9 51.03 13.26 51.2C14.14 51.6 12.65 51.84 12.64 52.19C12.63 52.61 12.32 52.66 12.08 52.82C11.6 53.19 11.77 52.45 11.46 52.36C11.08 52.38 11.33 52.96 10.88 52.95C10.6 52.91 10.27 53.43 10.12 53.01C9.06 52.54 10.35 54.41 8.45 54.64C7.81 54.74 8.02 55.13 7.89 55.56C7.78 55.61 7.77 55.52 7.74 55.45C7.71 55.19 6.99 54.9 7.23 55.33C7.84 55.84 6.47 55.9 6.97 56.35C7.3 56.52 7.33 55.95 7.61 56.14C7.75 56.27 7.82 56.19 7.9 56.06C8.15 55.32 8.74 56.09 9.09 55.66C9.18 55.26 8.4 55.53 8.53 55.11C8.94 54.6 9.49 55.36 9.58 55.78C9.78 56.33 10.01 55.71 10.34 55.84C10.48 56.23 10.27 56.73 10.42 57.17C10.47 57.59 11.05 57.17 10.79 56.9C10.65 56.33 11.3 56.65 11.43 56.35C11.82 55.96 11.91 56.87 12.04 57.09C12.16 57.81 13.13 56.27 13.65 56.81C13.72 56.96 13.6 57.05 13.5 57.13C13 57.42 13.7 57.77 13.42 58.1C12.91 58.75 14.17 58.97 14.02 58.05C14.04 57.9 14.16 57.82 14.25 57.94C14.48 58.26 14.73 58.1 14.98 57.99C15.41 58.63 14.29 58.93 14.74 59.36C14.9 59.48 14.99 59.56 14.84 59.75C14.68 59.99 15.07 60.15 15.15 59.91C15.33 59.69 14.82 58.64 15.57 59.31C15.89 59.52 16.28 60.39 15.82 60.56C15.72 60.56 15.72 60.46 15.73 60.38C15.88 59.86 15.16 59.89 15.28 60.4C15.13 62.39 13.14 59.84 12.48 60.41C11.48 59.89 9.99 60.44 9.27 59.25C8.63 58.88 7.83 58.42 7.14 58.71C7.18 58.05 6.89 57.24 6.03 57.33C5.85 57.67 6.56 57.79 6.41 58.1C5.81 58.53 5.3 57.26 4.62 57.98C4.13 58.46 3.41 57.76 3.01 58.04C3.1 58.41 4.08 58.18 3.96 58.73C3.6 59.14 2.17 57.82 2.25 58.81C2.32 59 2.03 59.09 1.92 58.96C1.89 57.86 -0.199999 57.75 0.680001 58.16C1.12 58.06 1.43 58.55 0.870001 58.73C0.510001 58.85 -0.179999 58.32 -0.0299991 59.04C0.260001 59.43 1.05 58.67 1.19 59.11C1.22 59.4 1.34 59.5 1.62 59.33C2.16 58.98 1.97 59.8 1.42 59.78C1.06 60.25 0.840001 59.44 0.480001 59.74C0.180001 59.94 0.580001 61.04 0.930001 60.62C0.950001 60.38 1.3 60.45 1.19 60.71C1.05 61.14 1.43 61.33 1.55 60.89C1.84 60.3 2.18 61.63 2.47 60.81C3.21 60.25 2.24 61.6 2.88 61.79C2.55 61.89 2.3 62.31 2.64 62.51C2.85 62.53 2.95 62.4 3.06 62.24C3.22 61.67 4.65 61.83 3.59 62.08C3.2 62.23 3.31 62.6 3.31 62.88C3.51 63.47 4.61 62.73 4.88 63.16C4.77 63.38 4.27 63.25 4.03 63.35C3.72 63.36 3.84 64.16 4.09 64.09C4.38 63.94 4.73 64.31 4.96 63.94C5.41 63.71 5.09 64.65 5.21 64.82C5.03 65.07 4.66 65.32 4.96 65.65C5.34 66.12 6.4 64.06 5.97 66.33C6.39 66.47 6.51 65.53 6.93 65.69C7.03 65.98 6.21 66.87 6.9 66.84C7.59 66.67 8.55 66.57 7.39 67.28C7.08 67.6 6.72 66.71 6.28 67.22C5.99 67.68 6.58 67.3 6.68 67.58C6.74 67.86 6.5 67.92 6.35 67.73C6 67.55 5.53 68.02 5.85 68.31C6.13 68.5 6.08 68.11 6.31 68.11C6.41 68.34 6.6 68.54 6.84 68.56C8.43 68.76 5.73 70.41 7.13 70.42C7.45 70.31 7.21 69.9 7.37 69.67C7.5 69.29 8.16 69.54 7.83 69.89C7.78 70.06 7.48 70.17 7.54 70.35C7.88 70.52 8.08 69.94 8.34 69.76C8.62 70 8.49 70.57 9.02 70.43C9.28 70.35 9.52 69.82 9.43 69.61C9.39 69.51 9.18 69.41 9.36 69.31C9.64 69.19 9.65 70.02 9.91 69.82C10.21 69.52 12.37 66.98 11.76 68.28C11.3 68.67 11.44 69.21 11.2 69.63C11.01 70.06 9.88 70 10.32 70.58C10.63 71.44 9.03 71.75 9.18 72.38C9.39 72.65 9.73 71.99 10.05 72.22C11.08 72.6 7.99 74.78 9.22 74.88C9.39 74.91 9.47 74.79 9.54 74.66C9.7 73.98 10.21 74.6 10.7 74.31C10.08 74.72 10.22 75.14 10.05 75.68C9.56 76.26 9.03 76.73 8.29 77.03C7.66 77.04 7.55 77.78 7.04 78.07C7.12 78.67 6.76 78.85 6.27 78.96C6 79.03 6.15 79.41 6.41 79.35C6.61 79.33 6.82 79.17 7 79.3C7.21 79.52 6.68 80.55 7.37 80.09C7.95 79.89 6.86 78.79 7.72 79.14C8.26 79.67 8.43 78.16 8.98 79C9.15 79.16 9.32 79.27 9.45 78.96C9.98 78.46 11.48 79.14 10.94 79.88C11.22 79.63 11.55 79.42 11.57 79.1C11.54 78.23 12.83 79.31 12.76 78.4C12.71 77.78 13.71 77.46 14.11 77.67C15.17 78.4 14.95 78.31 15.57 77.58C15.89 77.49 16.04 77.27 16.07 76.91C16.11 77.39 16.61 77.42 16.78 77.07C17.01 76.3 17.29 77.57 17.69 77.19C17.87 77.03 18.1 76.84 17.94 76.54C17.84 76.36 17.81 76.21 18.04 76.15C18.59 75.92 18.85 77.43 18.35 77.46C17.83 77.43 18.21 78.13 17.86 78.14C17.14 77.95 17.3 78.86 16.83 78.99C15.9 79.04 16.39 80.39 15.41 80.39C14.87 80.48 14.28 81.24 14.15 81.72C13.98 82.26 13.07 82.42 12.73 83.01C12.59 83.25 13.19 83.9 12.47 83.55C12.11 83.23 11.91 83.66 11.6 83.83C11.44 83.91 11.21 83.98 11.33 84.2C11.5 84.4 11.75 84.95 12.05 84.84C12.68 84.53 12.66 83.83 13.35 83.65C13.18 84.34 12.35 85.09 12.58 85.71C13.8 84.78 13.18 85 13.8 86.4C14.24 86.21 13.97 84.71 14.81 85.09L14.89 85.06Z" fill="#014E42"/>
<path d="M79.02 60.86C78.54 60.87 78.72 60.06 78.26 60.26C77.57 60.67 77.89 59.75 77.41 59.7C77.24 59.73 77.28 59.89 77.3 60.02C77.43 60.31 76.92 60.91 76.77 60.5C76.53 60.12 77.16 59.18 76.47 59.28C75.92 59.35 76.29 60.39 75.61 60C75.5 59.87 75.67 59.84 75.72 59.77C76 59.46 75.59 59.03 75.25 59.18C73.36 60.9 73.94 58.52 72.65 59C72.38 58.98 71.84 58.9 72.26 59.35C72.81 60.27 70.72 59.39 71.52 59.51C71.71 59.66 71.85 59.4 71.7 59.29C71.31 59.18 71.19 57.72 70.85 58.5C70.83 58.68 71.1 59.24 70.71 59.06C70.49 58.83 70.84 58.17 70.24 58.29C69.87 58.46 70.03 57.45 69.63 58.01C69.13 58.58 69.59 57.33 69.01 57.63C68.63 57.64 67.92 58.22 68.66 58.3C69.15 58.16 68.95 58.42 68.62 58.37C67.63 58.58 68.47 57.86 68.05 57.53C67.65 57.46 67.86 58.58 67.37 58.32C67.05 57.9 67.63 57.55 67.65 57.24C67.25 56.86 66.84 57.59 66.46 57.73C65.94 57.88 66.28 56.92 66.39 56.62C66.61 56.52 67.65 55.09 67.56 55.62C66.79 57.94 68.65 55.35 69.41 56.58C69.68 56.97 69.88 55.88 70.49 55.66C70.79 55.46 70.11 55.07 70.69 55.11C72.31 55.02 70.4 55.64 70.65 56.36C70.65 56.48 70.73 56.65 70.84 56.5C72.37 55.38 71.56 55.64 72.27 56.79C72.44 56.75 72.89 56.55 72.66 56.34C71.94 55.15 72.88 55.6 73.3 56.4C73.64 56.89 74.2 55.88 74.57 55.98C74.82 56.28 74.16 56.74 74.33 57C74.62 57.1 74.82 56.35 75.11 56.58C75.3 56.74 75.02 56.93 74.91 57.09C74.46 57.54 75.6 57.75 75.37 57.19C75.26 56.6 75.59 56.77 76 56.7C76 56.32 75.27 56.17 75.88 55.64C75.37 55.7 74.94 55.88 74.52 55.61C75.01 55.62 75.7 54.85 74.95 54.82C74.65 54.71 74.97 54.62 75.18 54.66C75.63 54.63 75.54 54.04 75.14 54.13C74.15 54.59 73.2 53.78 72.54 53.04C72.31 52.73 71.79 53.03 71.6 52.62C71.16 52.23 70.86 51.18 71.34 50.85C71.83 51 71.11 52.19 71.72 52.13C72.39 51.63 72.72 52.86 73.13 52.19C73.37 51.74 73.87 51.6 73.6 51.01C73.56 50.41 74.04 50.87 73.92 51.27C73.84 51.64 74.55 52.21 74.62 51.63C74.74 51.24 74.07 51.08 74.31 50.73C74.82 50.49 75.1 51.83 75.59 51.4C75.88 51.12 75.37 51.08 75.38 50.84C75.66 50.62 76.17 50.91 76.28 50.38C76.32 50.24 76.44 50.2 76.55 50.3C78.27 51.34 77.59 50.3 76.51 49.87C76.25 49.53 74.6 50.5 75.45 49.56C75.68 49.08 74.78 49.38 74.69 48.94C74.21 48.51 74.02 49.26 74.45 49.55C74.23 49.58 73.97 49.78 73.9 49.36C73.83 48.54 73.33 48.85 72.93 49.24C72.55 49.49 72.31 48.59 71.97 49.22C71.79 49.42 71.69 49.37 71.6 49.13C71.24 48.48 70.98 49.64 70.55 49.43C70.13 49.19 70.11 48.18 69.33 48.37C68.84 48.37 69.46 47.53 69.76 48.05C70.57 49.05 70.59 47.19 71.49 47.56C71.75 47.72 71.89 47.51 71.83 47.26C71.67 46.87 71.05 47.29 70.83 47.02C71.01 46.42 72.42 47.31 72.22 46.53C72.07 46.09 72.68 46.13 72.62 45.62C72.81 45.23 73.43 45.43 73.77 45.2C74.4 45.03 73.61 44.35 74.2 44.18C76.11 44.42 74.77 43.42 73.97 43.96C73.79 44.26 72.77 44.11 73.42 44C74.04 43.86 73.86 43.2 73.34 43.52C72.86 43.8 72.17 43.73 71.75 43.99C71.7 44.47 71.35 44.42 71.04 44.41C70.79 44.4 70.58 44.43 70.5 44.71C70.27 45.08 69.72 44.4 69.52 45.1C69.25 44.25 68.49 45.14 68.17 45.48C67.97 46 67.63 44.95 67.42 45.54C67.22 46.36 66.59 45.28 66.35 45.9C66.23 46.34 66.2 46.35 65.84 46.02C64.51 45.41 65.95 46.88 65.12 46.5C64.7 46.41 64.02 45.56 64.77 45.56C64.93 45.59 64.99 45.46 65.05 45.35C65.28 44.89 65.34 45.74 65.62 45.48C66.74 44.47 64.66 44.48 64.77 43.62C64.82 43.37 64.61 43.25 64.4 43.22C64.02 43.16 63.62 43.07 63.36 43.55C63.26 42.85 63.59 42.54 64.23 42.62C64.67 42.68 64.92 42.59 65.03 42.18C65.4 41.1 66.4 42.72 66.59 41.28C66.62 41.07 66.66 40.93 66.92 41.11C67.48 41.22 66.66 40.25 67.38 40.04C67.71 39.57 66.63 39.85 67.7 38.83C67.93 38.53 68.4 38.81 68.33 39.15C68.27 39.4 68.11 39.15 67.99 39.19C67.41 39.24 67.82 40.2 68.22 39.81C68.45 39.37 68.89 39.07 68.96 38.53C69.04 37.77 69.87 39.17 69.92 38.23C69.96 37.88 69.47 38.04 69.48 37.77C69.77 37.15 69 37.06 68.96 36.64C69.35 36.46 70.17 37.06 70.46 36.55C70.34 35.94 69.11 36.58 69.11 35.9C69.33 35.53 69.89 36.01 70.22 35.93C71.07 35.93 70.48 34.95 71.26 34.77C71.35 34.71 71.48 34.63 71.4 34.5C70.03 34.57 68.97 36.05 67.55 36.24C66.88 36.26 66.73 36.85 67.45 37.03C67.93 37.64 65.95 37.07 65.47 37.31C65.02 37.35 64.99 37.34 64.99 36.89C64.69 36.04 66.17 36.31 65.54 35.59C65.13 35.3 65.97 34.77 66.27 35.08C66.35 35.15 66.46 35.19 66.54 35.09C66.18 34.09 66.78 34.58 66.65 33.85C66.42 32.86 67.3 33.94 67.91 32.41C68.1 32.35 68.23 32.25 68.12 32.05C67.71 31.49 67.31 32.71 66.9 32.2C66.5 31.8 66.37 32.67 65.93 32.65C65.78 32.69 65.68 32.76 65.68 32.93C65.85 34.05 64.79 32.76 64.53 33.54C64.42 34.62 63.89 34.04 63.3 34.05C63.2 34.26 63.48 34.46 63.53 34.67C63.66 35.5 62.53 33.97 62.46 34.73C62.69 35.88 62.05 34.89 61.61 34.87C61.47 34.95 61.59 35.07 61.61 35.18C61.77 35.46 61.35 35.54 61.33 35.24C61.25 33.69 61.23 34.35 62.13 34.44C63.38 33.48 60.46 33.89 60.88 33.23C61.8 33.07 62.84 33.04 63.66 32.45C64.29 31.22 66.13 31.87 65.23 30.71C66.15 30.75 66.54 32.07 67.21 30.81C67.32 30.65 67.41 30.64 67.55 30.73C68.27 31.25 68.17 31.12 68.44 30.4C68.95 30.09 69.67 31.5 69.73 30.72C69.79 29.48 67.98 30.41 67.46 29.86C67.12 29.57 66.42 30.74 66.36 29.83C66.21 29.42 65.59 29.87 65.27 29.96C64.78 30.29 64.18 29.77 63.77 30.11C63.06 30.88 63.42 30 63.54 29.48C63.54 29.03 63.64 28.98 64.03 29.18C64.58 29.54 64.59 28.52 64.17 28.38C64 28.34 63.82 28.12 64.09 28.03C64.86 27.92 64.43 29.54 65.34 28.75C66.09 28.88 65.34 27.77 65.96 28.01C66.55 28.29 66.17 27.53 66.44 27.39C66.88 27.22 66.94 28.33 67.33 27.82C67.86 27.24 66.98 27.32 66.87 26.97C67.32 26.11 67.58 26.76 68.13 27.03C68.58 27.28 68.82 26.74 68.31 26.65C68.04 26.53 67.99 26.41 68.27 26.23C68.76 25.67 67.3 25.32 66.94 25.7C66.76 25.83 66.6 25.86 66.42 25.72C66.03 25.31 64.38 27.75 64.02 26.29C63.39 26.82 62.86 27.75 61.92 27.98C61.63 28.12 61.84 28.79 61.31 28.61C60.64 28.17 59.68 30.1 59.64 29.39C60.14 29.22 59.93 28.25 59.49 28.76C59.16 29.08 58.74 30.2 58.89 29.1C58.92 28.08 57.1 29.36 56.71 29.21C56.34 29.06 58.06 27.65 58.11 28.04C58.47 28.3 59.05 27.53 59.13 27.26C58.96 26.65 59.47 26.38 59.77 26.03C60.29 25.59 60.12 26.75 60.48 26.79C60.82 26.41 61.7 24.89 62.2 25.5C62.19 25.74 62.46 25.79 62.58 25.58C63.18 24.02 63.16 25.08 64.02 24.57C64.37 24.16 64.64 23.63 65.31 23.67C65.54 23.62 65.53 23.39 65.31 23.4C63.76 23.57 61.53 23.36 60.32 23.71C60.19 24.45 58.76 23.88 58.55 24.57C58.22 25.51 56.11 24.5 57.77 23.31C57.91 23.21 58.03 23.19 58.06 23.41C58.15 23.95 58.61 23.32 58.54 23.09C58.44 22.48 58.95 22.34 59.21 21.91C59.5 21.2 60.06 22.33 60.34 22.41C60.49 22.16 60.6 21.73 60.5 21.4C60.78 20.93 60.75 22.21 61.37 20.84C61.74 20.27 61.99 21.21 62.23 20.91C62.69 19.87 63.02 21.91 63.29 20.36C63.56 20.54 63.86 20.21 64.11 20.44C64.59 20.7 64.34 20.06 64 20.09C63.26 20.22 63.77 19.27 63.12 19.21C62.72 19.02 62.81 19.93 62.43 19.55C61.74 19.09 60.62 19.58 59.99 19.84C59.71 20.78 58.2 20.57 57.45 20.97C56.82 21.73 56.52 21.12 56.66 22.42C55.96 22.76 56.79 20.85 56.19 21.52C55.46 23.32 55.65 21.44 55.09 22.12C54.88 22.48 54.35 22.16 54.25 22.64C54.12 22.93 53.78 22.4 53.65 22.79C52.84 23.36 52.6 21.88 53.47 21.74C53.54 21.72 53.64 21.65 53.64 21.6C53.65 21.02 54.49 21 54.47 20.4C54.71 20.27 54.92 20.29 54.79 19.95C54.75 18.95 55.21 20.1 55.48 19.78C55.63 19.61 55.48 19.4 55.27 19.35C54.76 19.22 55.43 18.46 55.71 19.06C55.82 19.3 56.12 19.22 56.04 18.94C55.75 18.09 57.25 18.52 57.3 17.94C57.21 17.65 56.11 18.29 56.66 17.54C58.81 17.37 56.88 16.32 56.21 17.46C56.02 18.52 54.35 17.01 54.56 18.19C54.81 19.06 54.03 18.26 53.72 18.56C53.32 19.08 52.09 18.04 52.11 19.12C52.1 19.24 52.2 19.47 51.99 19.45C50.9 19.84 51.14 16.37 51.55 18.02C51.58 18.28 51.65 18.49 51.94 18.31C52.22 18.17 52.04 18.03 51.94 17.88C51.59 17.18 52.55 18 52.8 17.52C53.31 17.21 52.67 16.49 53.34 16.27C53.91 16.02 54.17 16.55 53.91 15.74C54.18 15.46 54.42 16.32 54.58 15.83C54.76 15.2 55.06 16.27 55.39 15.88C55.58 15.46 56.25 15.95 56.24 15.6C55.54 14.64 55.15 15.67 54.45 14.86C54.24 15.24 54.41 15.73 53.69 15.14C53.47 14.86 53.24 14.81 53 15.11C52.67 15.56 51.9 14.36 51.83 15.25C51.5 15.76 51.62 14.21 51.5 14.07C51.5 13.54 50.87 13.63 50.69 13.26C50.98 12.71 51.4 14.11 51.94 13.6C52.36 13.51 52.99 13.96 53.07 13.22C53.1 12.98 53.11 12.91 53.34 13.1C54.55 13.25 53.24 12.48 53.02 12.16C52.28 11.58 52.98 13.03 52.19 12.85C51.33 12.92 51.47 11.76 50.66 11.74C50.49 11.8 50.54 11.03 50.78 11.27C51.27 11.35 52.32 13.36 52.31 12.37C52.26 12.03 52.31 11.75 52.68 11.59C53.02 11.45 53.17 11.18 52.96 10.81C53.38 10.81 53.82 11.54 54.18 11.06C54.18 10.65 53.56 10.26 53.14 10.5C52.73 10.72 52.52 9.93 52.12 10.41C51.32 10.84 51.89 9.85 52.09 9.52C52.44 8.93 52.48 10.16 53 9.61C53.42 9.06 54.24 8.87 53.52 8.17C53.32 8.13 53.39 8.39 53.39 8.55C53.22 9.39 52.82 7.79 52.39 8.64C52.08 9.2 51.67 8.99 51.19 9.15C50.38 10.19 51.67 10.11 49.39 9.73C49.61 10.54 48.98 10.59 48.98 10.09C49.07 9.07 49.07 7.95 49.73 7.19C49.89 7.08 49.97 7.21 50.07 7.32C51.28 7.57 50.97 6.2 49.27 6.87C48.33 6.9 47.56 7.29 46.92 7.98C46.6 8.25 46.29 7.78 46.75 7.66C47.46 7.46 47.62 6.59 48.44 6.59C49.53 6.55 49.66 4.94 50.8 5.47C51.18 5.63 51.28 5.22 50.89 5.13C50.41 4.88 49.96 5.34 49.48 5.15C49.39 5.11 49.34 5.27 49.32 5.38C49.26 5.68 49.07 5.68 48.93 5.49C48.52 4.74 48.21 6.14 47.63 5.58C47.2 4.76 48.88 4.53 49.19 4.13C49.03 3.88 48.44 3.86 48.21 4.16C47.51 4.68 46.72 6.5 46.8 4.54C46.61 4.29 46.53 4.08 46.76 3.79C46.96 3.36 46.24 3.2 46.03 3.51C45.72 3.7 46.66 4.07 46.03 4.08C44.77 4.05 46.78 4.85 45.95 4.96C44.59 6.02 45.44 4.62 44.75 4.13C43.27 3.82 45.37 5.46 44.02 6.22C43.47 6.91 44.87 7.59 45.04 8.32C45.14 9.49 44.42 7.5 43.94 7.62C43.65 7.51 43.35 7.79 43.06 7.57C43.02 7.54 42.94 7.65 42.92 7.72C42.67 8.3 43.43 8.15 43.42 8.59C43.52 9.94 42.28 8.93 42.53 8.07C42.72 7.51 41.84 7.7 41.78 8.11C41.73 8.27 41.61 8.44 41.42 8.37C41.13 8.24 41.38 7.85 41.43 7.64C41.72 6.95 41.24 6.79 40.77 6.39C41.25 6.19 41.55 6.28 41.69 6.66C41.74 7.19 42.48 6.75 42.07 6.41C41.39 5.7 41.28 5.79 40.53 6.06C40.61 5.79 41.1 5.43 40.9 5.19C40.63 5 40.73 5.43 40.55 5.45C40.35 5.06 40.45 4.77 40.84 4.51C41.67 3.61 39.31 4.47 39.4 5.2C38.55 5.68 39.53 3.89 40.14 3.99C40.42 3.93 40.62 3.79 40.49 3.45C40.38 3.12 40.74 2.82 40.36 2.59C39.99 2.35 39.72 3.38 39.68 2.23C39.79 1.86 40.29 2.38 40.43 2.01C40.53 1.73 40.2 1.57 39.99 1.48C39.75 1.14 40.16 0.399999 39.9 -0.110001C39.85 0.539999 39.3 0.929999 39.34 1.6C39.34 1.81 39.31 2.07 39.04 2.12C38.42 2.17 38.75 2.54 38.6 2.92C38.14 3.39 39.2 3.64 38.84 4.1C38.68 4.28 38.45 4.21 38.28 4.01C37.78 3.49 37.66 4.52 38.22 4.53C38.91 5.3 37.15 5.25 36.87 5.79C35.71 6.3 37.34 7.98 36.09 8.03C35.57 7.94 36.06 8.74 35.56 8.5C35.21 8.25 34.69 8.72 34.84 9.07C34.96 9.16 35.01 9.01 35.07 8.95C35.23 8.59 35.61 8.9 35.56 9.2C35.46 10.01 34.61 9.6 34.24 9.82C33.87 10.39 33.92 9.34 33.57 9.4C33.46 10.33 32.73 9.5 32.51 10.2C32.56 10.56 33.12 10.28 33.23 10.64C33.58 11.29 33.79 10.26 34.11 10.27C34.26 10.32 34.2 10.49 34.2 10.61C34.02 11.57 34.71 10.59 35.03 10.96C35.1 11.14 34.89 11.19 34.75 11.24C34.25 11.41 34.69 11.66 34.58 11.96C33.67 11.22 32.56 11.25 31.49 10.97C31.23 11.02 31.43 11.51 31.13 11.53C30.88 11.44 31.04 10.85 30.67 10.93C30.13 11.05 31.52 12.62 30.65 11.86C30.27 10.97 28.94 12.06 29.92 11.91C30.12 11.65 30.27 11.75 30.44 11.94C30.64 12.19 31 13.1 31.25 12.34C31.57 11.52 32.11 12.58 31.48 12.77C30.91 13.19 31.69 14.01 32.13 14.34C32.81 14.87 31.37 15.53 30.94 14.9C30.56 14.49 29.94 14.75 29.53 14.39C28.61 14.29 27.82 13.63 26.86 13.61C26.31 13.83 25.54 13.26 25.13 13.59C25.01 13.95 25.74 14.04 25.85 14.19C25.91 14.61 26.33 14.86 26.3 15.31C26.28 15.58 26.43 15.56 26.58 15.45C26.73 15 27.7 15.06 27.14 15.45C26.72 15.75 27.19 15.94 27.14 16.27C26.83 16.79 26.89 16.96 27.47 17.16C28.71 19.1 26.52 18.77 26.92 19.27C27.3 19.4 27.35 20.31 27.84 19.87C27.97 19.5 28.29 19.83 28.03 20.04C27.19 21.23 30.98 21.07 29.17 20.53C29.53 19.32 30.5 20.84 29.51 21.29C29.26 21.51 28.8 22.09 28.48 21.71C28.43 21.64 28.43 21.55 28.5 21.51C28.96 21.24 28.55 21.17 28.39 21.11C28.23 21.08 28.09 21.01 27.98 20.92L28.62 24.79C28.84 25.63 29.01 26.49 29.19 27.35C29.45 28.61 29.69 29.88 29.95 31.14C30.17 32.22 30.41 33.29 30.62 34.37C30.83 35.45 31.01 36.53 31.26 37.6C31.3 37.79 31.34 37.97 31.52 38.08C31.61 38.14 31.65 38.25 31.68 38.35C31.76 38.65 31.9 38.92 32.06 39.19C32.14 39.32 32.2 39.44 32.14 39.59C31.76 40.62 32.08 41.61 32.37 42.57C32.57 43.21 32.75 43.86 32.89 44.52C33.04 45.24 33.33 45.92 33.49 46.64C33.66 47.42 33.85 48.21 34.08 48.98C34.08 49 34.1 49.03 34.1 49.05C34.12 50.14 34.76 50.94 35.38 51.75C35.66 52.11 35.68 52.36 35.38 52.7C35.1 53.01 35.09 53.29 35.23 53.66C35.54 54.48 35.9 55.26 36.47 55.95C36.88 56.44 37.2 57 37.55 57.53C37.74 57.82 37.95 58.08 38.22 58.3C38.4 58.44 38.59 58.53 38.79 58.34C38.88 58.25 38.98 58.29 39.09 58.31C39.39 58.36 39.67 58.5 39.98 58.56C40.78 58.71 41.58 58.68 42.38 58.61C43.35 58.52 44.31 58.44 45.27 58.25C45.75 58.16 46.22 58.08 46.7 58.01C47.65 57.86 48.5 58.09 49.32 58.55C49.7 58.76 50.06 59.02 50.41 59.27C51.58 60.1 52.85 60.7 54.25 61.04C54.88 61.2 55.48 61.45 56.07 61.74C57.26 62.32 58.53 62.65 59.83 62.85C60 62.88 60.19 62.87 60.36 62.85C60.69 62.83 61 62.81 61.32 62.99C61.53 63.11 61.84 63.17 62.06 62.89C62.14 62.78 62.28 62.83 62.4 62.84C62.67 62.87 62.94 62.91 63.21 62.9C63.46 62.9 63.69 62.86 63.92 62.74C64.21 62.59 64.55 62.54 64.88 62.51C65.61 62.43 66.25 62.18 66.83 61.73C67.38 61.3 68.06 61.13 68.73 60.99C68.97 60.94 69.22 61.03 69.46 61.09C69.61 61.13 69.66 61.25 69.68 61.38C69.73 61.8 69.7 62.21 69.46 62.57C69.22 62.94 69.02 63.32 68.83 63.72C68.74 63.91 68.62 64.1 68.44 64.22C67.88 64.64 67.4 65.15 66.75 65.45C65.88 65.85 65.25 66.5 64.78 67.33C64.61 67.63 64.4 67.89 64.06 68.04C63.84 68.14 63.63 68.16 63.41 68.08C62.7 67.81 62.04 67.48 61.67 66.77C61.59 66.62 61.48 66.5 61.38 66.37C61.13 66.08 61.03 66.07 60.66 66.21C60.38 66.31 60.08 66.27 59.82 66.18C58.87 65.83 57.88 65.79 56.89 65.71C55.33 65.58 53.8 65.3 52.31 64.78C51.48 64.49 50.64 64.26 49.88 63.8C49.69 63.69 49.57 63.51 49.39 63.4C48.74 62.99 48.03 62.78 47.27 62.86C46.49 62.94 45.73 63.09 44.99 63.36C44.44 63.56 43.85 63.69 43.26 63.73C43.19 63.73 43.12 63.73 43.04 63.81C42.97 63.97 43.04 64.13 43.09 64.3C43.25 64.89 43.37 65.49 43.31 66.11C43.25 66.63 43.05 67.06 42.72 67.45C42.56 67.64 42.39 67.82 42.24 68.02C41.99 68.38 41.78 68.77 41.69 69.2C41.43 70.48 40.9 71.66 40.19 72.74C39.6 73.63 39.35 74.6 39.26 75.64C39.24 75.84 39.21 76.04 39.19 76.24C39.18 76.33 39.17 76.44 39.09 76.5C38.86 76.67 38.87 76.91 38.92 77.14C39.06 77.9 39.34 78.62 39.68 79.31C39.89 79.74 40.08 80.17 40.21 80.62C40.36 81.12 40.26 81.63 40.14 82.12C40.1 82.28 39.97 82.38 39.79 82.36C38.78 82.24 37.93 81.86 37.35 80.98C37.29 80.88 37.26 80.76 37.22 80.65C36.99 79.9 36.71 79.18 36.22 78.56C36.03 78.32 35.91 78.03 35.77 77.76C35.58 77.38 35.61 77.03 35.86 76.7C36.02 76.48 36.19 76.27 36.34 76.07C36.32 75.88 36.18 75.81 36.1 75.7C35.85 75.38 35.77 75.05 35.99 74.68C36.09 74.51 36.16 74.32 36.3 74.16C36.42 74.02 36.44 73.84 36.46 73.66C36.52 73.22 36.5 72.79 36.5 72.35C36.5 71.28 36.58 70.22 36.85 69.18C36.95 68.79 37.12 68.43 37.35 68.09C37.43 67.98 37.53 67.87 37.52 67.72C37.19 67.5 36.6 67.6 36.28 67.94C35.98 67.86 35.82 67.66 35.72 67.37C35.61 67.02 35.57 66.65 35.54 66.29C35.48 65.67 35.46 65.64 34.84 65.61C34.35 65.58 33.88 65.49 33.46 65.22C33.35 65.15 33.24 65.08 33.05 65.16C33 65.56 33.24 65.97 33.11 66.39C32.9 66.51 32.67 66.5 32.45 66.5C31.98 66.5 31.5 66.5 31.03 66.49C30.9 66.49 30.77 66.47 30.64 66.45C30.23 66.37 30.05 66.14 30.08 65.72C30.12 65.21 30.17 64.71 30.22 64.2C30.23 64.06 30.24 63.92 30.24 63.77C30.25 63.49 30.18 63.25 29.95 63.08C29.74 62.93 29.69 62.74 29.7 62.49C29.72 61.79 29.74 61.1 29.46 60.43C29.34 60.15 29.29 59.84 29.46 59.54C29.54 59.4 29.46 59.26 29.37 59.15C29.13 58.87 28.83 58.65 28.5 58.48C28.3 58.38 28.13 58.42 28 58.6C27.86 58.79 27.73 58.99 27.62 59.2C27.04 60.3 26.34 61.32 25.71 62.39C25.41 62.91 25.02 63.38 24.67 63.87C24.41 64.24 24.15 64.6 23.91 64.98C23.74 65.25 23.68 65.54 23.75 65.86C23.85 66.34 23.76 66.48 23.32 66.7C23.14 66.79 22.95 66.85 22.76 66.92C22.44 67.05 22.17 67.22 22.05 67.55C21.54 67.6 21.53 67.6 21.42 68.1C21.23 69.01 21.07 69.93 20.93 70.86C20.78 71.84 20.59 72.82 20.41 73.79C20.22 74.83 19.86 75.82 19.61 76.84C19.37 77.82 18.95 78.74 18.63 79.69C18.02 81.47 17.22 83.25 17.04 83.98C17.24 83.53 17.74 83.1 18.22 83.15C18.11 84.64 18.7 83.67 17.16 84.3C16.64 84.38 16.73 85.14 16.15 85.2C15.63 85.35 16.45 85.77 16.19 86.09C15.53 86.63 14.94 85.65 15.41 87.74C15.68 87.77 15.69 87.26 16.02 87.4C16.26 87.52 16.3 88.01 16.02 88.14C15.45 88.36 16.06 88.96 15.7 89.28C15.5 89.42 15.62 89.74 15.86 89.67C16.9 86.84 16.85 90.37 17.86 89.43C19.08 88.25 18.38 90.05 17.42 90.03C17.14 90.05 17.03 90.19 17.07 90.46C17.27 91.32 15.94 91.25 15.67 91.88C14.59 91.7 15.76 93.07 15.06 92.9C14.62 92.8 14.38 92.99 14.35 93.44C14.16 93.97 14.64 94.04 14.8 93.62C15.14 93.2 15.45 93.15 15.82 93.53C16.13 93.89 16.86 93.01 17.09 93.62C17.27 93.86 17.53 94.89 17.79 94.21C17.87 93.7 18.26 93.44 18.4 92.99C18.43 92.48 18.72 92.8 18.77 93.17C18.83 93.31 18.82 93.54 19.08 93.44C19.87 92.89 18.84 92.5 19.69 92.1C19.83 91.86 20.02 92.06 20.12 92.19C20.45 92.64 21.01 91.78 20.57 91.51C20.19 91.26 20.63 90.63 20.95 91.03C21.23 91.4 21.69 90.48 21.7 91.12C22.3 92.32 21.8 93.51 21.97 94.72C22.32 95.22 22.35 94.41 22.17 94.22C22.3 93.41 22.94 94.67 22.51 95.02C22.35 95.2 22.63 95.46 22.82 95.43C23.42 94.99 22.42 93.48 23.1 93.27C23.23 93.35 23.26 93.48 23.21 93.61C23.01 93.98 23.57 95.06 24.01 94.59C24.18 94.38 24.31 94.14 23.96 93.96C23.82 93.88 23.78 93.78 23.92 93.71C24.29 93.5 23.95 93.01 24.27 92.73C24.45 92.85 24.43 93.03 24.48 93.18C24.53 93.43 25.03 93.47 25.08 93.21C25.33 92.66 25.19 91.9 25.58 91.51C25.97 91.39 26.04 91.19 25.77 90.9C25.36 90.45 25.11 90.05 25.65 89.52C26.2 89.03 24.13 89.16 25.05 88.75C27.18 89.2 25.5 89.64 25.72 90.16C25.81 90.3 25.92 90.16 26.02 90.12C26.29 89.91 26.65 90.48 26.28 90.56C25.99 90.67 26.33 90.99 26.31 91.17C26.31 91.31 26.32 91.5 26.51 91.47C26.87 91.38 26.32 90.83 26.7 90.72C27.09 90.66 26.9 91.35 27.32 91.31C28.68 90.88 28.29 89.08 28.77 88C28.98 87.49 29.3 88.4 29.72 88.17C30.73 88.41 29.1 90.05 29.99 90.33C30.35 90.39 30.9 91.71 31.11 91.05C30.97 90.49 30.4 90.26 30.22 89.74C30.39 89.36 30.8 89.9 30.9 90.05C30.97 90.51 32.27 91.14 31.42 91.34C30.84 91.43 31.06 92.13 31.42 92.36C31.93 92.05 31.82 91.11 32.65 91.25C31.87 90.71 31.76 90.5 32.09 90.1C32.28 90.36 32.54 91.01 32.91 90.89C32.91 90.28 32.41 89.19 32.91 88.69C33.24 89.06 33.19 90.08 33.91 90.1C34.6 87.77 31.74 86.99 32.96 85.94C33.04 87.19 33.94 88.44 34.44 86.55C34.78 85.9 34.97 86.82 35.3 86.91C35.55 87.11 35.16 87.66 35 87.87C33.6 88.99 36.37 88.41 35.43 89.11C34.94 89.29 35.31 90.01 34.69 90.03C33.79 90.32 35.38 91.02 35.36 91.33C34.44 91.9 34.54 91.48 35.17 92.73C35.48 92.25 34.89 91.61 35.73 91.4C36.23 91.16 35.6 90.61 35.24 90.51C35.15 90.51 35.05 90.49 35.03 90.38C35.24 89.55 35.91 90.76 36.39 90.62C36.62 90.62 36.75 90.66 36.61 90.92C36.7 91.68 37.11 90.56 36.88 90.37C36.48 89.68 37.55 89.55 37.26 88.95C36.94 88.35 37.81 88.32 37.95 88.88C38.39 89.75 38.85 89.02 39.35 88.69C39.85 88.57 39.88 88.45 39.52 88.07C39.04 87.46 39.62 86.42 39.56 85.67C42.72 77.78 40.79 103.87 40.43 110.82H16.76L15.94 112.51H71.07L70.25 110.82H46.76C45.86 99.53 45.77 96.15 45.64 84.67C46.02 83.89 45.82 85.09 45.97 85.32C45.97 85.65 45.51 85.9 45.97 86.15C46.34 86.36 46.02 86.97 46.14 87.39C46.04 87.65 46.54 89.2 46.87 88.44C46.97 87.94 47.77 88.51 47.34 88.77C47.24 88.84 47.13 88.93 47.17 89.05C47.21 89.73 47.85 90.76 48.55 90.08C48.58 89.65 50.03 89.34 49.05 89.11C48.8 89.01 48.96 88.28 49.22 88.48C49.47 88.76 49.56 88.6 49.67 88.37C50.5 87.72 49.91 89.53 49.98 89.93C49.79 90.63 50.74 90.12 50.9 90.61C51.23 91.2 52.02 90.47 51.76 89.99C51.52 89.4 52.86 90.15 52.46 89.26C52.3 89 52.39 88.77 52.5 88.54C52.57 88.39 52.64 88.17 52.83 88.24C53.19 88.51 52.5 89.06 53.03 89.35C53.41 89.71 52.53 91 53.13 91.41C53.88 91.48 52.87 90.27 53.53 89.87C54.25 89.29 53.72 90.95 54.24 91.06C54.87 91.12 54.33 90.54 54.41 90.28C54.71 89.85 55.08 89.86 55.39 90.29C55.82 91.07 55.98 89.95 55.68 89.6C55.47 88.92 56.11 89.6 56.43 89.52C56.37 89.3 56.14 89.05 56.37 88.86C56.76 88.65 56.49 88.12 56.84 87.97C57.32 88.13 57.01 89.79 57.83 89.43C58.08 89.13 58.15 89.38 58.21 89.55C58.48 89.98 57.67 90.19 57.99 90.55C58.23 90.95 58.88 91.41 58.7 90.6C58.96 90.68 59.92 91.28 60 90.98C60.24 88.76 60.96 90.54 60.77 89.7C60.72 89.62 60.62 89.52 60.68 89.46C61.03 89.13 60.45 88.9 60.69 88.57C60.76 88.24 61.56 89.64 61.73 89.35C61.84 89.21 62.03 89.01 61.9 88.78C61.39 88.21 62.85 88.61 62.85 87.94C62.99 87.49 63.58 89.11 64.12 88.64C64.51 88.24 63.45 87.86 63.99 87.54C64.6 87.54 64.8 89.31 65.53 89.21C65.7 88.95 65.78 89.12 65.87 89.27C66.01 89.41 66.08 89.78 66.29 89.76C66.53 89.43 65.99 88.65 66.56 88.46C66.9 88.49 66.62 89.13 66.97 89.14C67.18 88.88 66.78 88.52 67.14 88.11C67.26 88.29 67.29 88.62 67.54 88.57C67.92 88.05 67 87.53 67.03 86.94C66.98 86.76 66.88 86.5 66.61 86.78C65.71 86.54 68.02 86.27 67.89 87.31C68.53 88.01 68.11 86.26 68.55 86.17C68.89 85.99 68.96 86.67 69.29 86.56C69.64 85.86 68.44 85.88 68.45 85.28C68.58 84.72 67.36 83.68 67.71 84.73C68.13 84.91 68.51 86 67.81 85.43C67.31 85.09 67.72 83.96 66.96 84.09C66.66 84.2 66.65 83.74 66.78 83.57C67.05 83.35 67.39 83.98 67.64 83.72C67.7 82.6 65.44 83.82 65.44 81.95C65.79 81.84 66 82.66 66.41 82.45C66.72 82.18 67.23 83.07 67.26 82.31C67.24 82.19 67.26 81.98 67.4 81.95C67.6 81.93 67.99 82.16 67.68 82.29C67.44 82.75 68.22 83.13 68.46 82.58C68.94 84.44 69.08 81.7 69.19 83.22C69.23 83.53 69.77 84.07 69.99 83.94C70.46 83.66 70.68 84.1 70.75 84.28C71.32 85.27 72.19 84.83 71.11 84.13C70.84 83.77 71.2 83.14 70.87 82.71C70.7 82.35 71.25 82.17 71.43 82.51C71.67 82.79 71.95 82.51 71.74 82.24C71.64 82.04 71.23 82 71.49 81.74C71.79 81.21 69.85 81.17 70.29 80.36C70.54 79.95 69.85 79.34 70.28 79.05C70.8 79.32 70.65 80.15 71.5 79.92C72.04 79.7 71.91 80.42 72.35 80.34C72.79 80.05 71.51 79.37 72.49 79.65C73.27 80.04 72.63 79.02 72.68 78.7C72.97 79.13 73.06 79.77 73.51 80.04C74.09 79.81 73.15 79.25 73.18 78.88C73.18 78.42 74.39 79.39 74.76 79.4C75.16 79.66 75.17 78.8 74.75 78.96C74.62 78.98 74.46 79.02 74.46 78.83C74.39 78.43 74.86 77.35 74.08 77.79C73.89 78.71 74.5 79.17 73.27 78.1C74.46 77.61 73.13 76.52 73.06 77.89C72.99 77.61 72.6 77.41 72.97 77.05C73.2 76.58 72.33 76.99 72.2 76.65C71.97 76.26 71.18 75.74 71.29 76.58C71.4 76.92 71.05 76.93 71.04 76.62C71.04 76.12 70.57 76 70.35 75.69C70.47 75.43 71.56 75.2 70.6 75.03C70.25 74.98 68.98 74.44 69.29 74.26C69.92 74.62 70.04 73.58 69.36 73.86C68.94 73.86 69.14 73.11 69.56 73.29C69.77 73.32 69.83 73.21 69.83 73.02C69.74 72.36 68.66 73.33 68.5 72.54C68.42 71.85 67.53 72.46 67.4 71.97C67.97 70.83 69.06 73.2 69.35 71.9C69.74 72.67 69.91 71.49 70.27 71.25C70.39 71.57 70.06 72.01 70.44 72.14C70.92 72.22 70.59 71.23 71.09 71.7C72.22 72.39 71.71 70.59 72.17 70.32C72.62 70.61 72.08 71.42 72.4 71.74C73.78 72.24 73.14 71.49 73.86 71.25C74.25 71.35 73.86 72.12 74.18 72.26C74.38 72.31 74.77 72.05 74.48 71.89C74.31 71.81 74.3 71.7 74.47 71.62C75.52 71.01 73.17 71.07 73.94 70.61C75.1 69.66 74.91 72 75.48 71.69C75.94 71.27 75.75 70.65 75.96 70.19C76.52 69.96 76.38 71.21 76.84 70.7C77.01 70.41 77.27 70.73 77.44 70.56C77.57 70.14 76.62 70.14 76.9 69.71C77.18 69.37 77.46 70.13 77.75 69.92C77.88 69.79 77.83 69.61 77.71 69.51C77.05 69.18 76.38 67.1 76.35 68.67C75.85 69.81 75.93 67.52 75.24 67.6C74.53 67.45 75.19 68.15 75.36 68.37C75.63 69.33 74.91 68.24 74.65 68.1C71.3 66.43 71.88 69.33 71.54 68.2C71.64 67.42 69.36 67.26 70.9 66.61C71.18 66.68 71.15 67.34 71.48 67.43C71.73 67.42 71.6 67.03 71.84 67C72.41 66.98 71.71 66.3 72.13 66.27C72.53 66.19 72.81 66.6 73.13 66.57C73.54 66.11 72.82 66.06 72.74 65.76C73.02 65.32 73.24 65.9 73.41 66.1C74.13 66.5 74.04 65.48 73.38 65.44C74.34 64.99 73.84 65.46 74.69 65.73C74.99 65.46 74.64 64.97 74.93 64.63C75.33 64.1 74.69 63.97 74.57 63.51C74.57 62.87 75.14 63.9 75.23 63.97C75.53 64.36 76.36 63.11 75.82 62.96C75.47 62.75 75.67 61.53 75.86 61.18C75.71 61.97 76.07 63.45 77.04 63.07C77.21 62.84 77.37 62.71 77.49 63.12C77.55 63.38 77.94 63.29 77.96 63.06C77.8 62.61 76.66 62.59 76.84 61.96C77.16 61.49 77.14 62.56 77.61 62.4C78.63 62.86 78.07 62.31 78.17 61.76C78.41 61.58 78.66 62.09 78.9 61.8C79.1 61.6 78.28 61.02 78.99 61.21C79.09 61.23 79.22 61.33 79.29 61.18C79.34 60.95 79.05 60.84 78.86 60.77L79.02 60.86Z" fill="#014E42"/>
<path d="M26.8 57.5C26.63 57.46 26.49 57.51 26.43 57.69C26.2 58.42 25.89 59.13 25.9 59.92C25.9 60.52 25.68 61.05 25.43 61.57C25.03 62.38 24.46 63.08 23.96 63.83C23.83 64.03 23.69 64.22 23.58 64.43C23.51 64.56 23.44 64.71 23.61 64.85C23.8 64.76 23.91 64.58 24.02 64.43C24.91 63.16 25.78 61.89 26.6 60.58C26.85 60.18 27.13 59.8 27.43 59.43C27.65 59.16 27.83 58.88 27.91 58.53C27.95 58.37 27.95 58.23 27.83 58.1C27.55 57.8 27.2 57.6 26.8 57.51V57.5Z" fill="#014E42"/>
<path d="M29.78 59.68C29.61 60.25 29.76 60.79 30.14 61.02C30.35 60.84 30.43 60.71 30.37 60.52C30.27 60.2 30.13 59.89 29.78 59.68Z" fill="#014E42"/>
<path d="M28.99 50.45C28.85 50.62 28.85 50.76 28.98 50.9C29.05 50.98 29.15 50.98 29.24 50.92C29.34 50.85 29.43 50.76 29.38 50.63C29.32 50.46 29.17 50.43 28.99 50.45Z" fill="#014E42"/>
<path d="M37.18 65.88C37.1 66.33 37.4 66.73 37.4 67.16C37.52 67.25 37.61 67.35 37.79 67.37C37.92 67.19 37.93 67 37.85 66.83C37.72 66.58 37.6 66.32 37.51 66.06C37.47 65.94 37.39 65.82 37.19 65.89L37.18 65.88Z" fill="#014E42"/>
<path d="M34.93 52.97C35.09 52.78 35.32 52.66 35.5 52.47C35.43 52.06 35.16 51.79 34.87 51.53C34.68 51.36 34.47 51.53 34.22 51.51C34.15 52.07 34.19 52.56 34.6 52.95C34.72 53.06 34.83 53.09 34.93 52.97Z" fill="#014E42"/>
<path d="M35.91 65.74C35.85 66.25 35.85 66.73 36.05 67.2C36.18 67.52 36.18 67.55 36.59 67.53C36.62 67.09 37.06 67.39 37.26 67.19C37.17 66.89 36.89 67.12 36.73 66.99C36.66 66.85 36.75 66.75 36.79 66.64C36.83 66.54 36.86 66.41 36.77 66.35C36.61 66.24 36.54 66.05 36.39 65.93C36.26 65.82 36.12 65.7 35.91 65.73V65.74Z" fill="#014E42"/>
<path d="M36.54 57.58C36.73 57.84 36.93 58.08 37.12 58.33C37.16 58.38 37.2 58.45 37.34 58.4C37.34 57.83 36.91 57.51 36.62 57.09C36.39 57.3 36.38 57.36 36.54 57.58Z" fill="#014E42"/>
<path d="M33.16 48.04C32.98 47.42 32.79 46.8 32.71 46.15C32.51 46.17 32.47 46.32 32.45 46.47C32.42 46.68 32.39 46.89 32.39 47.1C32.37 48.16 32.32 49.22 32.02 50.25C31.9 50.66 31.82 51.08 31.78 51.5C31.76 51.71 31.82 51.87 32.03 51.92C32.17 51.86 32.2 51.74 32.26 51.64C32.56 51.14 32.8 50.59 33.43 50.38C33.61 50.32 33.67 50.11 33.61 49.93C33.38 49.32 33.34 48.66 33.16 48.04Z" fill="#014E42"/>
<path d="M38.63 66.51C38.77 66.29 38.75 66.15 38.53 66.01C38.29 65.86 38.02 65.81 37.68 65.88C37.91 66.22 37.89 66.63 38.08 66.96C38.34 66.88 38.46 66.77 38.63 66.51Z" fill="#014E42"/>
<path d="M117.718 106.569H105.859L104.089 113H93.174L104.62 77.6H119.37L130.816 113H119.429L117.718 106.569ZM112.467 86.686H111.228C110.579 89.341 109.93 91.937 109.222 94.592L107.983 98.958H115.653L114.473 94.592C113.765 91.937 113.116 89.341 112.467 86.686ZM146.944 102.085H143.05V113H132.43V77.6H148.714C157.977 77.6 163.228 81.553 163.228 90.049C163.228 95.241 160.986 98.663 157.151 100.492L165.293 112.351V113H152.962L146.944 102.085ZM147.947 86.45H143.05V94.356H148.124C151.605 94.356 152.726 93.176 152.726 90.403C152.726 87.571 151.251 86.45 147.947 86.45ZM167.576 113V77.6H183.801C193.536 77.6 197.725 80.432 197.725 86.627C197.725 91.347 195.011 94.002 189.996 95.005V95.595C196.781 96.126 198.964 98.132 198.964 103.265C198.964 109.165 195.188 113 185.453 113H167.576ZM178.196 99.135V105.33H185.099C187.4 105.33 188.462 104.15 188.462 102.262C188.462 100.138 187.754 99.135 184.922 99.135H178.196ZM178.196 85.506V92.114H183.624C186.456 92.114 187.636 91.17 187.636 88.751C187.636 86.45 186.633 85.506 183.801 85.506H178.196ZM200.932 94.002L199.575 77.6H209.841L208.72 94.002H200.932ZM230.084 113.885C218.52 113.885 211.971 106.805 211.971 95.182C211.971 83.5 219.11 76.715 230.084 76.715C241.294 76.715 248.197 83.5 248.197 95.182C248.197 106.805 241.648 113.885 230.084 113.885ZM230.025 104.858C235.63 104.858 237.636 101.318 237.636 95.123C237.636 89.459 235.571 85.919 230.084 85.919C224.597 85.919 222.532 89.518 222.532 95.123C222.532 101.259 224.597 104.858 230.025 104.858ZM268.213 104.504C272.697 104.504 273.936 102.203 273.936 98.191V77.6H284.556V99.076C284.556 108.516 278.774 113.826 268.213 113.826C257.593 113.826 251.87 108.516 251.87 99.076V77.6H262.49V98.191C262.49 102.203 263.729 104.504 268.213 104.504ZM317.523 113H289.321V77.6H317.523V86.745H299.941V91.465H316.343V98.958H299.941V103.855H317.523V113ZM337.035 113.885C324.822 113.885 321.341 108.575 320.692 102.97L330.781 100.787C331.548 104.268 334.262 105.507 337.507 105.507C340.339 105.507 341.932 104.858 341.932 103.265C341.932 101.436 340.693 100.492 334.321 99.43C324.409 98.014 321.459 94.002 321.459 87.807C321.459 80.727 326.356 76.715 336.74 76.715C346.888 76.715 351.018 81.081 351.844 86.981L341.283 88.987C340.634 86.214 339.513 84.798 336.15 84.798C333.377 84.798 331.961 85.624 331.961 87.276C331.961 88.692 332.374 89.813 338.923 90.875C350.428 92.881 352.611 97.306 352.611 102.616C352.611 109.755 347.891 113.885 337.035 113.885ZM363.423 87.335H354.101V77.6H383.365V87.335H374.043V113H363.423V87.335Z" fill="#F0562D"/>
</svg>
