<svg width="785" height="192" viewBox="0 0 785 192" fill="none" xmlns="http://www.w3.org/2000/svg">
<path d="M219.507 114.365H194.365L190.612 127.999H167.47L191.738 52.9459H223.01L247.277 127.999H223.135L219.507 114.365ZM208.374 72.2096H205.748C204.372 77.8386 202.996 83.3425 201.495 88.9715L198.868 98.2281H215.129L212.627 88.9715C211.126 83.3425 209.75 77.8386 208.374 72.2096ZM281.47 104.858H273.214V127.999H250.698V52.9459H285.223C304.862 52.9459 315.995 61.3269 315.995 79.3397C315.995 90.3475 311.241 97.6026 303.111 101.48L320.373 126.623V127.999H294.229L281.47 104.858ZM283.597 71.7092H273.214V88.4711H283.972C291.352 88.4711 293.729 85.9694 293.729 80.0902C293.729 74.0859 290.602 71.7092 283.597 71.7092ZM325.214 127.999V52.9459H359.614C380.253 52.9459 389.135 58.9502 389.135 72.0845C389.135 82.0916 383.381 87.7206 372.748 89.8471V91.098C387.133 92.2238 391.761 96.4768 391.761 107.36C391.761 119.868 383.756 127.999 363.116 127.999H325.214ZM347.73 98.6033V111.738H362.366C367.244 111.738 369.496 109.236 369.496 105.233C369.496 100.73 367.995 98.6033 361.99 98.6033H347.73ZM347.73 69.7078V83.7178H359.238C365.243 83.7178 367.744 81.7164 367.744 76.5877C367.744 71.7092 365.618 69.7078 359.614 69.7078H347.73ZM395.934 87.7206L393.057 52.9459H414.823L412.446 87.7206H395.934ZM457.741 129.876C433.224 129.876 419.339 114.865 419.339 90.2224C419.339 65.4548 434.474 51.0696 457.741 51.0696C481.508 51.0696 496.143 65.4548 496.143 90.2224C496.143 114.865 482.258 129.876 457.741 129.876ZM457.616 110.737C469.499 110.737 473.752 103.232 473.752 90.0973C473.752 78.0888 469.374 70.5834 457.741 70.5834C446.108 70.5834 441.73 78.2139 441.73 90.0973C441.73 103.107 446.108 110.737 457.616 110.737ZM538.58 109.986C548.086 109.986 550.713 105.108 550.713 96.6019V52.9459H573.229V98.4782C573.229 118.492 560.97 129.75 538.58 129.75C516.064 129.75 503.93 118.492 503.93 98.4782V52.9459H526.446V96.6019C526.446 105.108 529.073 109.986 538.58 109.986ZM643.124 127.999H583.332V52.9459H643.124V72.3347H605.848V82.3418H640.623V98.2281H605.848V108.61H643.124V127.999ZM684.493 129.876C658.599 129.876 651.219 118.618 649.843 106.734L671.233 102.106C672.859 109.486 678.614 112.113 685.493 112.113C691.498 112.113 694.875 110.737 694.875 107.36C694.875 103.482 692.248 101.48 678.739 99.2288C657.724 96.2267 651.469 87.7206 651.469 74.5863C651.469 59.5756 661.852 51.0696 683.867 51.0696C705.383 51.0696 714.139 60.3262 715.89 72.835L693.499 77.0881C692.123 71.2089 689.746 68.2068 682.616 68.2068C676.737 68.2068 673.735 69.958 673.735 73.4605C673.735 76.4626 674.611 78.8393 688.496 81.0909C712.888 85.3439 717.516 94.7256 717.516 105.984C717.516 121.119 707.509 129.876 684.493 129.876ZM740.438 73.5856H720.674V52.9459H782.718V73.5856H762.954V127.999H740.438V73.5856Z" fill="#F0562D"/>
<path d="M57.3 87.2C57.1 86.7 56.8 86.7 56.5 87.1C56.1 87.6 55.8 88.1 55.4 88.6C55 89.2 55.1 89.5 55.6 89.9C56.4 90.5 56.9 91.3 57.3 92.2C57.5 92.7 57.8 93.1 58.2 93.5C58.4 93.7 58.6 93.8 58.9 93.8C59.1 93.7 59.2 93.5 59.2 93.4C59.2 92.8 59.1 92.4 59.1 91.9C59.1 91.6 59 91.3 58.7 91.1C58.1 90.7 57.8 90.1 57.9 89.4C57.9 88.6 57.6 87.8 57.3 87.2Z" fill="#014E42"/>
<path d="M25.6 144.6C26.3 144.8 26.6 144.6 26.5 143.9C26.4 143.1 27.1 142.3 27.7 141.8C28 141.8 27.9 142.1 27.9 142.3C27.8 143.2 28.4 142.8 29 142.8C29.1 142.6 29.2 142.4 29.3 142.1C29.8 140.8 30.2 139.5 30.7 138.2C31.4 136.4 32 134.6 32.7 132.9C33.2 131.4 33.5 129.8 33.9 128.3C34.1 127.4 34.4 126.5 34.6 125.5C34.9 123.7 35.2 121.9 35.6 120.1C35.9 118.6 36.4 117 36.6 115.5C36.7 115 36.6 114.5 36.2 114.2C35.9 114 35.9 113.7 35.9 113.3C35.9 113 36 112.6 36.1 112.3C36.5 111.2 37.2 110.2 37.8 109.3C38.9 107.6 39.7 105.7 39.9 103.7C39.9 103.4 40 103.1 40.1 102.8C40.5 101.3 41.1 100 41.6 98.5C41.8 98 41.8 97.5 41.6 97.1C41.2 96.4 41.2 95.6 41.1 94.8C40.9 93.5 41.3 92.4 42.4 91.6C42.5 91.6 42.5 91.5 42.6 91.4C42.8 91.1 42.7 90.9 42.5 90.7C42.4 90.6 42.2 90.5 42 90.5C40.7 90.3 39.8 89.6 38.9 88.7C38.3 88.1 38 87.4 38.1 86.5C38.2 86 38.3 85.6 38.4 85.1C39 83.4 39.9 82 41.8 81.4C43.1 81.1 44.2 81 45.2 82.1C45.5 82.5 45.9 82.5 46.3 82.4C46.7 82.3 47 82.3 47.3 82.5C47.8 82.8 48.3 83.1 48.8 83.4C49.6 83.9 49.8 84.4 49.7 85.3C50.2 85.7 50.6 85.7 51 85.3C51.2 85.1 51.4 84.8 51.5 84.4C51.6 83.9 51.7 83.3 51.8 82.7C51.9 81.9 52 81.1 52.3 80.4C52.5 79.9 52.6 79.3 52.6 78.8C52.5 77.6 52.5 76.5 52.8 75.3C53 74.1 53.1 72.9 53 71.7C52.9 70.7 52.6 69.7 52.3 68.8C52 68 52 67.2 52.5 66.4C53 65.7 53.1 65 52.9 64.2C52.7 63.4 52.5 62.5 52.4 61.7C52.3 60.8 52.1 59.9 51.9 59.1C51.5 57.5 51.3 55.8 50.9 54.2C50.4 52 49.9 49.8 49.6 47.6C49.4 46.2 49 44.8 47.5 35.7C47 35 46.6 34.2 45.7 34.1C44.1 33.4 45.2 31.3 42.6 31.3C41.8 31.2 41.5 30.9 41.5 30.1C40.8 29.3 39.7 28.6 38.8 28C38 27.5 38 26 36.7 26.1C36.4 26.1 36.2 26 36.3 25.6C36.4 24.4 35 24.6 34.3 25C35.5 24.2 32 22.1 32.7 23.6C33.4 24.2 34.5 25.2 34 26.2C33.6 26.3 32.5 25 32.8 26.1C33.6 27.6 33.8 26.4 34.5 27C34.5 28.3 32.2 27.5 32.2 28.8C32.6 29.2 33.4 28.2 33.8 28.4C34.4 28.9 36.1 28.1 35.6 29.3C34.9 30.5 38.6 30.6 36.9 29.6C36 28.8 37.7 29.3 38.1 29.5C38.5 29.5 38.9 29.5 38.8 30C38.8 30.4 39.3 30.6 39.1 31C39.1 34.3 36.8 32.5 39.1 35.4C39.3 35.6 39 36 38.8 35.7C38.1 34.7 37.1 36.6 38 37.1C39.3 38.4 37.9 35.3 39.1 36.5C39.3 37.2 39.7 39.4 38.8 39.6C38.1 39.9 39.2 40.7 39.7 41C40.7 41.4 38.9 41.6 39.6 42.2C40 42.8 40.4 42.6 40.5 42C41.1 43.2 44 42.7 42.5 44.4C41.7 44.6 40.9 42.9 40.7 44.6C40.6 45.6 39.9 44.9 40.1 44.2C39.8 42.8 37.7 44.6 36.7 44.1C36.4 44.1 36.5 45.2 36 44.9C34.8 44.1 31.9 45 34.2 46.1C34.9 46.8 33.6 47.1 33.3 46.4C32.5 45.4 32.3 44.9 32.1 46.3C31.7 46.3 31.7 45.5 31.5 45.2C31.2 44.5 30.5 44.9 30.8 45.5C31.6 46.5 30.3 46.4 29.7 46.7C28.2 48 30.2 47.8 30.9 47C31.1 46.9 31.4 46.8 31.6 47C32.4 47.3 32.4 47.3 31.6 48C30.3 51.2 34.8 46.6 34.2 48C33.3 48.9 32.6 49.2 33.7 50.2C33.6 50.8 32.4 50.3 32.2 50.8C32.2 51.8 32.8 53 32 53.6C30.9 55.2 32.3 55 32.7 53.5C34 52.2 32.9 55 33.7 55.1C35.4 53.3 34.4 56.4 35.6 55.6C35.9 55 36.4 55.8 36.1 56.1C36 56.3 35.8 56.3 35.7 56.2C35 55.6 34.9 57.2 35.6 57C36.7 56.8 36.3 59.1 35.6 59.1C34.4 58.8 34.8 60.5 33.8 60.4C33.1 60.2 34.2 59.2 33.5 58.9C32.9 58.7 33.3 60.7 32.7 59.6C32.5 58.8 31.6 59.5 31.9 60.1C32 60.5 33.3 60.2 32.6 60.8C31.9 61.7 30.3 59.8 30 60.5C29 61.7 27.5 60 27.3 61.2C26.6 61.4 26.9 62.4 27.4 61.7C28.3 60.6 29.7 62.7 30.7 63C30.3 63.6 29.8 62.4 29.4 62.8C28.9 63.2 28.2 62.3 27.8 63.2C27.5 64 26.4 63 26.4 64.1C26.1 64.8 22.8 64.7 23.5 66.2C23.8 66.4 23.9 66.1 24 65.9C24.2 65.3 24.8 65.3 25.2 65C25.8 64.7 25.9 65.5 25.4 65.8C25 66.3 25.8 66.8 26 66.2C27.2 65.2 26.9 66.9 27.6 64.7C29.2 65.8 26.9 66.6 26.8 67.5C26.8 68.4 25.3 67.8 25.8 69C26.1 69.7 25.2 69.8 25.3 69.1C25.3 68.1 22.9 69.9 23.8 70.5C24.3 70.3 24.4 69.2 25.1 69.7C25.9 70 25.3 70.7 25.4 71.3C25.7 72.2 23.6 71.8 24.8 72.5C25.6 72.4 24 74.7 24.7 75.3C25.5 75.6 25.5 73.7 26.3 74C26.5 74.3 25.9 74.7 26.1 75.1C26.5 75.6 25.5 76 25.9 76.4C26.7 76.3 27 75 26.8 74.3C27.4 72.8 27.2 76.2 28.1 76.2C30 76.7 29 79 30.4 78.9C32.7 77.5 28.9 81.3 32 81C32.3 80.9 32.7 80.9 32.7 81.3C32.6 82.2 30.8 81.7 31.4 83C31.5 83.2 31.8 83.2 31.8 83C32 82.4 33 82.9 33.1 82.1C33.1 82 33.3 82.1 33.4 82.2C33.5 83.2 34.3 83.5 34.8 84.4C34.9 85.1 33 84.9 32.5 85.2C31.6 85.4 31.6 84.1 30.6 84.4C29.4 83 28.4 84.1 28 83C27.9 81.8 26.5 82.4 26 81.8C25.7 81.1 25.1 80.6 24.5 80.2C24.1 79.4 20.6 73.8 19.5 74.6C19 75.2 21.6 75.6 20.2 75.7C20 75.7 19.8 75.6 19.7 75.9C19.6 76.3 20 76.4 20.3 76.5C21.7 77.2 19.4 77.8 19.9 78.6C20.6 79 22.3 78.8 22.7 79.7C21.5 79.7 21.4 79.8 21.7 80.8C21.1 80.8 19.7 80.8 19.6 81.5C20.5 81.5 22.6 82 21.6 83.5C21.2 84.1 20.7 83.1 20.4 83.5C19.7 86.4 22.2 82.8 23.3 84.3C22.6 84.6 21.7 84.4 21.2 85.2C21.8 85.2 22 87.1 22.5 86.1C22.7 85.2 23.5 85.7 22.7 86.3C22.4 86.8 22.3 87.1 22.9 87.3C24.4 88 21.9 88.4 21.9 89C21.9 89.7 21.4 89.8 21 90.1C20.2 90.7 20.5 89.5 20 89.3C19.4 89.3 19.8 90.3 19 90.3C18.5 90.2 18 91.1 17.7 90.4C15.9 89.6 18.1 92.8 14.9 93.1C13.8 93.3 14.2 93.9 14 94.7C13.8 94.8 13.8 94.6 13.8 94.5C13.7 94.1 12.5 93.6 12.9 94.3C13.9 95.2 11.6 95.3 12.5 96C13 96.3 13.1 95.3 13.6 95.6C13.8 95.8 14 95.7 14.1 95.5C14.5 94.2 15.5 95.5 16.1 94.8C16.3 94.1 14.9 94.6 15.1 93.9C15.8 93 16.7 94.3 16.9 95C17.2 95.9 17.6 94.9 18.2 95.1C18.4 95.8 18.1 96.6 18.3 97.4C18.4 98.1 19.4 97.4 18.9 96.9C18.7 95.9 19.8 96.5 20 96C20.7 95.3 20.8 96.9 21 97.3C21.2 98.5 22.8 95.9 23.7 96.8C23.8 97 23.6 97.2 23.5 97.3C22.7 97.8 23.8 98.4 23.4 98.9C22.5 100 24.7 100.4 24.4 98.8C24.4 98.5 24.6 98.4 24.8 98.6C25.2 99.1 25.6 98.9 26 98.7C26.7 99.8 24.8 100.3 25.6 101C25.9 101.2 26 101.3 25.8 101.7C25.5 102.1 26.2 102.4 26.3 102C26.6 101.6 25.7 99.9 27 101C27.5 101.4 28.2 102.8 27.4 103.1C27.2 103.1 27.2 102.9 27.3 102.8C27.6 101.9 26.3 102 26.5 102.8C26.3 106.2 22.9 101.8 21.8 102.8C20.1 101.9 17.6 102.8 16.4 100.8C15.3 100.2 14 99.4 12.8 99.9C12.9 98.8 12.4 97.4 10.9 97.6C10.6 98.2 11.8 98.4 11.5 98.9C10.5 99.6 9.59997 97.5 8.49997 98.7C7.69997 99.5 6.49997 98.3 5.79997 98.8C5.99997 99.4 7.59997 99 7.39997 100C6.79997 100.7 4.39997 98.5 4.49997 100.1C4.59997 100.4 4.09997 100.6 3.89997 100.3C3.79997 98.4 0.299969 98.3 1.79997 98.9C2.59997 98.7 3.09997 99.6 2.09997 99.9C1.49997 100.1 0.29997 99.2 0.59997 100.4C1.09997 101.1 2.39997 99.8 2.69997 100.5C2.69997 101 2.99997 101.2 3.39997 100.9C4.29997 100.3 3.99997 101.7 3.09997 101.7C2.49997 102.5 2.09997 101.1 1.49997 101.6C0.999969 101.9 1.69997 103.8 2.29997 103.1C2.29997 102.7 2.89997 102.8 2.69997 103.3C2.49997 104 3.09997 104.4 3.29997 103.6C3.79997 102.6 4.39997 104.8 4.89997 103.5C6.09997 102.5 4.49997 104.8 5.59997 105.2C4.99997 105.4 4.59997 106.1 5.19997 106.4C5.59997 106.4 5.69997 106.2 5.89997 105.9C6.19997 104.9 8.59997 105.2 6.79997 105.6C6.09997 105.9 6.29997 106.5 6.29997 106.9C6.59997 107.9 8.49997 106.6 8.99997 107.4C8.79997 107.8 7.99997 107.5 7.59997 107.7C7.09997 107.7 7.29997 109.1 7.69997 108.9C8.19997 108.7 8.79997 109.3 9.19997 108.6C9.99997 108.2 9.39997 109.8 9.59997 110.1C9.29997 110.5 8.69997 110.9 9.19997 111.5C9.79997 112.3 11.6 108.8 10.9 112.7C11.6 112.9 11.8 111.3 12.5 111.6C12.7 112.1 11.3 113.6 12.4 113.5C13.6 113.2 15.2 113 13.2 114.2C12.7 114.7 12.1 113.2 11.3 114.1C10.8 114.9 11.8 114.2 12 114.7C12.1 115.2 11.7 115.3 11.5 115C10.9 114.7 10.1 115.5 10.7 116C11.2 116.3 11.1 115.7 11.5 115.7C11.7 116.1 12 116.4 12.4 116.5C15.1 116.8 10.5 119.6 12.9 119.6C13.4 119.4 13 118.7 13.3 118.3C13.5 117.7 14.6 118.1 14.1 118.7C14 119 13.5 119.2 13.6 119.5C14.2 119.8 14.5 118.8 15 118.5C15.5 118.9 15.2 119.9 16.1 119.6C16.5 119.5 16.9 118.6 16.8 118.2C16.7 118 16.4 117.9 16.7 117.7C17.2 117.5 17.2 118.9 17.6 118.6C18.1 118.1 21.7 113.8 20.7 116C19.9 116.7 20.2 117.6 19.7 118.3C19.4 119 17.5 118.9 18.2 119.9C18.7 121.3 16 121.9 16.3 122.9C16.7 123.4 17.2 122.2 17.8 122.6C19.5 123.2 14.3 126.9 16.4 127.1C16.7 127.1 16.8 127 16.9 126.7C17.2 125.6 18 126.6 18.9 126.1C17.8 126.8 18.1 127.5 17.8 128.4C17 129.4 16.1 130.2 14.8 130.7C13.7 130.7 13.5 132 12.7 132.5C12.8 133.5 12.2 133.8 11.4 134C10.9 134.1 11.2 134.8 11.6 134.7C11.9 134.7 12.3 134.4 12.6 134.6C13 135 12.1 136.7 13.2 135.9C14.2 135.6 12.3 133.7 13.8 134.3C14.7 135.2 15 132.6 15.9 134.1C16.2 134.4 16.5 134.5 16.7 134C17.6 133.2 20.1 134.3 19.2 135.6C19.7 135.2 20.2 134.8 20.3 134.3C20.2 132.8 22.4 134.7 22.3 133.1C22.2 132.1 23.9 131.5 24.6 131.9C26.4 133.1 26 133 27.1 131.7C27.6 131.5 27.9 131.2 27.9 130.6C28 131.4 28.8 131.5 29.1 130.9C29.5 129.6 30 131.7 30.6 131.1C30.9 130.8 31.3 130.5 31 130C30.8 129.7 30.8 129.5 31.2 129.3C32.1 128.9 32.6 131.5 31.7 131.5C30.8 131.5 31.5 132.6 30.9 132.7C29.7 132.4 30 133.9 29.2 134.1C27.6 134.2 28.5 136.5 26.8 136.5C25.9 136.6 24.9 137.9 24.7 138.8C24.4 139.7 22.9 140 22.3 141C22.1 141.4 23.1 142.5 21.9 141.9C21.3 141.4 20.9 142.1 20.4 142.4C20.1 142.5 19.7 142.7 19.9 143C20.2 143.3 20.6 144.3 21.1 144.1C22.2 143.6 22.1 142.4 23.3 142.1C23 143.3 21.6 144.5 22 145.6C24.1 144 23 144.4 24.1 146.8C24.7 146.5 24.2 143.9 25.6 144.6Z" fill="#014E42"/>
<path d="M133.9 103.7C133.1 103.7 133.4 102.4 132.6 102.7C131.4 103.4 132 101.8 131.2 101.8C130.9 101.9 131 102.1 131 102.3C131.2 102.8 130.4 103.8 130.1 103.1C129.7 102.5 130.8 100.9 129.6 101C128.7 101.1 129.3 102.9 128.1 102.2C127.9 102 128.2 101.9 128.3 101.8C128.8 101.3 128.1 100.5 127.5 100.8C124.3 103.7 125.3 99.7 123.1 100.5C122.6 100.5 121.7 100.3 122.4 101.1C123.3 102.7 119.8 101.2 121.2 101.4C121.5 101.7 121.8 101.2 121.5 101C120.8 100.8 120.6 98.3 120.1 99.7C120.1 100 120.5 100.9 119.9 100.6C119.5 100.2 120.1 99.1 119.1 99.3C118.5 99.6 118.7 97.9 118.1 98.8C117.3 99.8 118 97.7 117.1 98.2C116.5 98.2 115.3 99.2 116.5 99.3C117.3 99.1 117 99.5 116.4 99.4C114.7 99.8 116.2 98.5 115.4 98C114.7 97.9 115.1 99.8 114.2 99.3C113.7 98.6 114.6 98 114.7 97.5C114 96.9 113.3 98.1 112.7 98.3C111.8 98.6 112.4 96.9 112.6 96.4C113 96.2 114.7 93.8 114.6 94.7C113.3 98.6 116.4 94.2 117.7 96.3C118.1 97 118.5 95.1 119.5 94.7C120 94.4 118.9 93.7 119.8 93.8C122.5 93.7 119.3 94.7 119.7 95.9C119.7 96.1 119.8 96.4 120 96.1C122.6 94.2 121.2 94.7 122.4 96.6C122.7 96.5 123.4 96.2 123.1 95.8C121.9 93.8 123.5 94.5 124.2 95.9C124.8 96.7 125.7 95 126.3 95.2C126.7 95.7 125.6 96.5 125.9 96.9C126.4 97.1 126.7 95.8 127.2 96.2C127.5 96.5 127 96.8 126.9 97.1C126.1 97.9 128.1 98.2 127.7 97.3C127.5 96.3 128.1 96.6 128.8 96.5C128.8 95.9 127.6 95.6 128.6 94.7C127.7 94.8 127 95.1 126.3 94.6C127.1 94.6 128.3 93.3 127 93.3C126.5 93.1 127 93 127.4 93C128.2 92.9 128 92 127.3 92.1C125.6 92.9 124 91.5 122.9 90.3C122.5 89.8 121.6 90.3 121.3 89.6C120.6 88.9 120 87.2 120.9 86.6C121.7 86.8 120.5 88.9 121.5 88.8C122.6 88 123.2 90 123.9 88.9C124.3 88.1 125.1 87.9 124.7 86.9C124.6 85.9 125.4 86.7 125.2 87.3C125.1 87.9 126.3 88.9 126.4 87.9C126.6 87.2 125.5 87 125.9 86.4C126.8 86 127.2 88.3 128.1 87.5C128.6 87 127.7 87 127.7 86.6C128.2 86.2 129 86.7 129.2 85.8C129.3 85.6 129.5 85.5 129.7 85.7C132.6 87.5 131.5 85.7 129.6 85C129.2 84.4 126.4 86.1 127.8 84.5C128.2 83.7 126.7 84.2 126.5 83.5C125.7 82.8 125.4 84 126.1 84.5C125.7 84.6 125.3 84.9 125.2 84.2C125.1 82.8 124.2 83.3 123.6 84C123 84.4 122.5 82.9 122 84C121.7 84.3 121.5 84.3 121.4 83.9C120.8 82.8 120.4 84.8 119.6 84.4C118.9 84 118.8 82.3 117.5 82.6C116.7 82.6 117.7 81.2 118.2 82.1C119.6 83.8 119.6 80.6 121.1 81.3C121.5 81.6 121.8 81.2 121.7 80.8C121.4 80.1 120.4 80.9 120 80.4C120.3 79.4 122.7 80.9 122.3 79.6C122 78.9 123.1 78.9 123 78.1C123.3 77.4 124.4 77.8 124.9 77.4C126 77.1 124.6 76 125.6 75.7C128.8 76.1 126.6 74.4 125.2 75.3C124.9 75.8 123.2 75.6 124.3 75.4C125.3 75.2 125 74 124.2 74.6C123.4 75.1 122.2 74.9 121.5 75.4C121.4 76.2 120.8 76.1 120.3 76.1C119.9 76.1 119.5 76.1 119.4 76.6C119 77.2 118.1 76.1 117.8 77.3C117.3 75.9 116.1 77.4 115.5 77.9C115.2 78.8 114.6 77 114.2 78C113.9 79.4 112.8 77.6 112.4 78.6C112.2 79.3 112.1 79.4 111.5 78.8C109.3 77.8 111.7 80.2 110.3 79.6C109.6 79.4 108.4 78 109.7 78C110 78.1 110.1 77.8 110.2 77.6C110.6 76.8 110.7 78.3 111.2 77.8C113.1 76.1 109.6 76.1 109.8 74.7C109.9 74.3 109.5 74.1 109.2 74C108.6 73.9 107.9 73.7 107.4 74.6C107.2 73.4 107.8 72.9 108.9 73C109.6 73.1 110.1 72.9 110.3 72.3C110.9 70.5 112.6 73.2 112.9 70.8C113 70.5 113 70.2 113.5 70.5C114.4 70.7 113.1 69.1 114.3 68.7C114.9 67.9 113 68.4 114.8 66.7C115.2 66.2 116 66.7 115.9 67.2C115.8 67.6 115.5 67.2 115.3 67.3C114.3 67.4 115 69 115.7 68.4C116.1 67.7 116.8 67.2 117 66.2C117.1 64.9 118.5 67.3 118.6 65.7C118.7 65.1 117.8 65.4 117.9 64.9C118.4 63.9 117.1 63.7 117 63C117.7 62.7 119 63.7 119.5 62.8C119.3 61.8 117.2 62.8 117.2 61.7C117.6 61.1 118.5 61.9 119.1 61.8C120.5 61.8 119.5 60.1 120.9 59.8C121.1 59.7 121.3 59.6 121.1 59.3C118.8 59.4 117 61.9 114.6 62.2C113.5 62.2 113.2 63.2 114.4 63.5C115.2 64.5 111.9 63.6 111.1 64C110.3 64.1 110.3 64.1 110.3 63.3C109.8 61.9 112.3 62.3 111.2 61.1C110.5 60.6 111.9 59.7 112.4 60.2C112.5 60.3 112.7 60.4 112.9 60.2C112.3 58.5 113.3 59.3 113.1 58.1C112.7 56.4 114.2 58.2 115.2 55.7C115.5 55.6 115.7 55.4 115.6 55.1C114.9 54.2 114.2 56.2 113.5 55.3C112.8 54.6 112.6 56.1 111.9 56.1C111.6 56.2 111.5 56.3 111.5 56.6C111.8 58.5 110 56.3 109.6 57.6C109.4 59.4 108.5 58.4 107.5 58.5C107.3 58.9 107.8 59.2 107.9 59.5C108.1 60.9 106.2 58.3 106.1 59.6C106.5 61.5 105.4 59.9 104.7 59.8C104.5 59.9 104.7 60.1 104.7 60.3C105 60.8 104.3 60.9 104.2 60.4C104.1 57.8 104 58.9 105.5 59.1C107.6 57.5 102.7 58.2 103.4 57.1C105 56.8 106.7 56.8 108.1 55.8C109.2 53.7 112.3 54.8 110.7 52.9C112.3 53 112.9 55.2 114 53.1C114.2 52.8 114.3 52.8 114.6 53C115.8 53.9 115.6 53.7 116.1 52.4C117 51.9 118.2 54.3 118.3 52.9C118.4 50.8 115.3 52.4 114.5 51.4C113.9 50.9 112.7 52.9 112.6 51.3C112.4 50.6 111.3 51.4 110.8 51.5C110 52.1 109 51.2 108.3 51.8C107.1 53.1 107.7 51.6 107.9 50.7C107.9 49.9 108.1 49.9 108.7 50.2C109.6 50.8 109.6 49.1 108.9 48.9C108.6 48.8 108.3 48.5 108.8 48.3C110.1 48.1 109.4 50.8 110.9 49.5C112.2 49.7 110.9 47.9 111.9 48.3C112.9 48.8 112.3 47.5 112.7 47.3C113.5 47 113.5 48.9 114.2 48C115.1 47 113.6 47.2 113.4 46.6C114.2 45.1 114.6 46.2 115.5 46.7C116.3 47.1 116.7 46.2 115.8 46.1C115.3 45.9 115.3 45.7 115.7 45.4C116.5 44.4 114.1 43.9 113.5 44.5C113.2 44.7 112.9 44.8 112.6 44.5C111.9 43.8 109.2 47.9 108.5 45.5C107.4 46.4 106.5 48 104.9 48.4C104.4 48.6 104.8 49.8 103.9 49.5C102.8 48.8 101.1 52 101.1 50.8C101.9 50.5 101.6 48.9 100.8 49.7C100.2 50.2 99.5 52.1 99.8 50.3C99.8 48.6 96.8 50.7 96.1 50.5C95.5 50.3 98.4 47.9 98.5 48.5C99.1 48.9 100.1 47.6 100.2 47.2C99.9 46.2 100.8 45.7 101.3 45.1C102.2 44.4 101.9 46.3 102.5 46.4C103.1 45.8 104.6 43.2 105.4 44.2C105.4 44.6 105.8 44.7 106 44.3C107 41.7 107 43.5 108.4 42.6C109 41.9 109.5 41 110.6 41.1C111 41 111 40.6 110.6 40.6C108 40.9 104.2 40.5 102.2 41.1C102 42.4 99.6 41.4 99.2 42.6C98.6 44.2 95.1 42.5 97.9 40.5C98.1 40.3 98.3 40.3 98.4 40.7C98.5 41.6 99.3 40.5 99.2 40.2C99 39.2 99.9 38.9 100.3 38.2C100.8 37 101.7 38.9 102.2 39C102.5 38.6 102.6 37.8 102.5 37.3C103 36.5 102.9 38.7 104 36.4C104.6 35.4 105 37 105.5 36.5C106.3 34.8 106.8 38.2 107.3 35.6C107.8 35.9 108.3 35.3 108.7 35.7C109.5 36.1 109.1 35.1 108.5 35.1C107.3 35.3 108.1 33.7 107 33.6C106.3 33.3 106.5 34.8 105.8 34.2C104.6 33.4 102.7 34.2 101.7 34.7C101.2 36.3 98.7 35.9 97.4 36.6C96.3 37.9 95.8 36.9 96.1 39.1C94.9 39.7 96.3 36.5 95.3 37.6C94.1 40.6 94.4 37.5 93.4 38.6C93 39.2 92.1 38.7 92 39.5C91.8 40 91.2 39.1 91 39.8C89.6 40.8 89.2 38.3 90.7 38C90.8 38 91 37.8 91 37.8C91 36.8 92.4 36.8 92.4 35.8C92.8 35.6 93.2 35.6 92.9 35C92.8 33.3 93.6 35.3 94.1 34.7C94.4 34.4 94.1 34.1 93.8 34C92.9 33.8 94.1 32.5 94.5 33.5C94.7 33.9 95.2 33.8 95.1 33.3C94.6 31.9 97.1 32.6 97.2 31.6C97 31.1 95.2 32.2 96.1 30.9C99.7 30.6 96.5 28.8 95.3 30.8C95 32.6 92.2 30 92.5 32C92.9 33.5 91.6 32.1 91.1 32.6C90.4 33.5 88.4 31.7 88.4 33.5C88.4 33.7 88.6 34.1 88.2 34.1C86.4 34.8 86.8 28.9 87.4 31.7C87.4 32.1 87.6 32.5 88.1 32.2C88.6 32 88.3 31.7 88.1 31.5C87.5 30.3 89.1 31.7 89.6 30.9C90.5 30.4 89.4 29.2 90.5 28.8C91.5 28.4 91.9 29.3 91.5 27.9C92 27.4 92.4 28.9 92.6 28.1C92.9 27 93.4 28.8 94 28.2C94.3 27.5 95.5 28.3 95.4 27.7C94.2 26.1 93.6 27.8 92.4 26.5C92.1 27.1 92.3 28 91.1 27C90.7 26.5 90.3 26.4 89.9 26.9C89.3 27.7 88 25.6 87.9 27.1C87.4 28 87.5 25.3 87.3 25.1C87.3 24.2 86.2 24.4 85.9 23.7C86.4 22.8 87.1 25.1 88 24.3C88.7 24.2 89.8 24.9 89.9 23.7C90 23.3 90 23.2 90.4 23.5C92.4 23.7 90.2 22.5 89.9 21.9C88.6 20.9 89.8 23.4 88.5 23.1C87 23.2 87.3 21.3 85.9 21.2C85.6 21.3 85.7 20 86.1 20.4C86.9 20.5 88.7 23.9 88.7 22.3C88.6 21.7 88.7 21.3 89.3 21C89.9 20.8 90.1 20.3 89.8 19.7C90.5 19.7 91.3 20.9 91.9 20.1C91.9 19.4 90.9 18.8 90.2 19.1C89.5 19.5 89.1 18.1 88.5 19C87.1 19.7 88.1 18 88.4 17.5C89 16.5 89.1 18.6 89.9 17.7C90.6 16.8 92 16.5 90.8 15.3C90.5 15.2 90.6 15.7 90.6 15.9C90.3 17.3 89.6 14.6 88.9 16C88.4 16.9 87.7 16.6 86.9 16.9C85.5 18.7 87.7 18.5 83.9 17.9C84.3 19.3 83.2 19.4 83.2 18.5C83.3 16.8 83.4 14.9 84.5 13.6C84.8 13.4 84.9 13.6 85.1 13.8C87.1 14.2 86.6 11.9 83.8 13C82.2 13.1 80.9 13.7 79.8 14.9C79.3 15.3 78.7 14.6 79.5 14.4C80.7 14.1 81 12.6 82.3 12.6C84.1 12.5 84.4 9.80002 86.3 10.7C86.9 11 87.1 10.3 86.4 10.1C85.6 9.70003 84.8 10.5 84 10.1C83.8 10 83.8 10.3 83.7 10.5C83.6 11 83.3 11 83 10.7C82.3 9.40002 81.8 11.8 80.8 10.8C80.1 9.40002 82.9 9.00002 83.4 8.40002C83.1 8.00002 82.1 7.90002 81.8 8.40002C80.6 9.30002 79.3 12.4 79.4 9.00002C79.1 8.60002 78.9 8.20002 79.3 7.70002C79.6 7.00002 78.4 6.70002 78.1 7.20002C77.6 7.50002 79.2 8.10002 78.1 8.20002C76 8.20002 79.4 9.50002 78 9.70002C75.7 11.5 77.1 9.10002 76 8.30002C73.5 7.80002 77 10.5 74.8 11.8C73.9 13 76.2 14.1 76.5 15.4C76.7 17.4 75.5 14 74.6 14.2C74.1 14 73.6 14.5 73.1 14.1C73 14 72.9 14.2 72.9 14.4C72.5 15.4 73.8 15.1 73.7 15.9C73.9 18.2 71.8 16.5 72.2 15C72.5 14.1 71 14.4 70.9 15.1C70.8 15.4 70.6 15.7 70.3 15.5C69.8 15.3 70.2 14.6 70.3 14.3C70.8 13.1 70 12.9 69.2 12.2C70 11.9 70.5 12 70.7 12.7C70.8 13.6 72 12.9 71.3 12.3C70.2 11.1 70 11.3 68.7 11.7C68.8 11.2 69.7 10.6 69.3 10.2C68.8 9.90002 69 10.6 68.7 10.6C68.4 9.90003 68.5 9.50002 69.2 9.00002C70.6 7.50002 66.6 8.90002 66.8 10.2C65.4 11 67 8.00002 68 8.20002C68.5 8.10002 68.8 7.90002 68.6 7.30002C68.4 6.70002 69 6.20002 68.4 5.80002C67.8 5.40002 67.3 7.10002 67.3 5.20002C67.5 4.60002 68.3 5.50002 68.6 4.80002C68.8 4.30002 68.2 4.10002 67.9 3.90002C67.8 3.00002 68.4 1.80002 68 0.900024C67.9 2.00002 67 2.70002 67.1 3.80002C67.1 4.20002 67.1 4.60002 66.6 4.70002C65.6 4.80002 66.1 5.40002 65.9 6.10002C65.1 6.90002 66.9 7.30002 66.3 8.10002C66 8.40002 65.6 8.30002 65.4 7.90002C64.6 7.00002 64.3 8.80002 65.3 8.80002C66.5 10.1 63.5 10 63 10.9C61 11.8 63.8 14.6 61.7 14.7C60.8 14.5 61.7 15.9 60.8 15.5C60.2 15.1 59.3 15.9 59.6 16.5C59.8 16.7 59.9 16.4 60 16.3C60.3 15.7 60.9 16.2 60.8 16.7C60.6 18.1 59.2 17.4 58.6 17.7C58 18.7 58.1 16.9 57.5 17C57.3 18.6 56.1 17.2 55.7 18.3C55.8 18.9 56.7 18.4 56.9 19C57.5 20.1 57.9 18.4 58.4 18.4C58.6 18.5 58.6 18.8 58.5 19C58.2 20.6 59.4 19 59.9 19.6C60 19.9 59.7 20 59.4 20.1C58.6 20.4 59.3 20.8 59.1 21.3C57.6 20.1 55.7 20.1 53.9 19.6C53.5 19.7 53.8 20.5 53.3 20.5C52.9 20.3 53.1 19.4 52.5 19.5C51.6 19.7 53.9 22.4 52.5 21.1C51.9 19.6 49.6 21.4 51.3 21.2C51.6 20.8 51.9 20.9 52.2 21.2C52.5 21.6 53.2 23.2 53.6 21.9C54.1 20.5 55.1 22.3 54 22.6C53 23.3 54.4 24.7 55.1 25.3C56.2 26.2 53.8 27.3 53.1 26.2C52.5 25.5 51.4 26 50.7 25.3C49.1 25.1 47.8 24 46.2 24C45.3 24.4 44 23.4 43.3 24C43.1 24.6 44.3 24.8 44.5 25C44.6 25.7 45.3 26.1 45.3 26.9C45.3 27.3 45.5 27.3 45.8 27.1C46.1 26.3 47.7 26.4 46.7 27.1C46 27.6 46.8 27.9 46.7 28.5C46.2 29.4 46.3 29.7 47.3 30C49.4 33.3 45.7 32.7 46.4 33.6C47 33.8 47.1 35.4 48 34.6C48.2 34 48.8 34.5 48.3 34.9C46.9 36.9 53.3 36.6 50.2 35.7C50.8 33.7 52.4 36.2 50.8 37C50.4 37.4 49.6 38.3 49.1 37.7C49 37.6 49 37.4 49.1 37.4C49.9 36.9 49.2 36.8 48.9 36.7C48.6 36.6 48.4 36.5 48.2 36.4L49 43C49.4 44.4 49.7 45.9 50 47.3C50.4 49.4 50.8 51.6 51.3 53.7C51.7 55.5 52.1 57.3 52.4 59.2C52.8 61 53.1 62.9 53.5 64.7C53.6 65 53.6 65.3 53.9 65.5C54.1 65.6 54.1 65.8 54.2 66C54.3 66.5 54.6 67 54.8 67.4C54.9 67.6 55 67.8 54.9 68.1C54.3 69.8 54.8 71.5 55.3 73.1C55.6 74.2 55.9 75.3 56.2 76.4C56.4 77.6 56.9 78.8 57.2 80C57.5 81.3 57.8 82.6 58.2 83.9V84C58.2 85.8 59.3 87.2 60.4 88.6C60.9 89.2 60.9 89.6 60.4 90.2C59.9 90.7 59.9 91.2 60.2 91.8C60.7 93.2 61.3 94.5 62.3 95.7C63 96.5 63.5 97.5 64.1 98.4C64.4 98.9 64.8 99.3 65.2 99.7C65.5 99.9 65.8 100.1 66.2 99.8C66.4 99.6 66.5 99.7 66.7 99.7C67.2 99.8 67.7 100 68.2 100.1C69.6 100.3 70.9 100.3 72.3 100.2C73.9 100 75.6 99.9 77.2 99.6C78 99.4 78.8 99.3 79.6 99.2C81.2 98.9 82.6 99.3 84 100.1C84.6 100.5 85.2 100.9 85.8 101.3C87.8 102.7 89.9 103.7 92.3 104.3C93.4 104.6 94.4 105 95.4 105.5C97.4 106.5 99.6 107 101.8 107.4C102.1 107.4 102.4 107.4 102.7 107.4C103.3 107.4 103.8 107.3 104.3 107.6C104.7 107.8 105.2 107.9 105.6 107.4C105.7 107.2 106 107.3 106.2 107.3C106.7 107.3 107.1 107.4 107.6 107.4C108 107.4 108.4 107.3 108.8 107.1C109.3 106.8 109.9 106.8 110.4 106.7C111.6 106.6 112.7 106.1 113.7 105.4C114.6 104.7 115.8 104.4 116.9 104.1C117.3 104 117.7 104.2 118.1 104.3C118.4 104.4 118.4 104.6 118.5 104.8C118.6 105.5 118.5 106.2 118.1 106.8C117.7 107.4 117.4 108.1 117 108.7C116.8 109 116.6 109.3 116.3 109.6C115.4 110.3 114.5 111.2 113.4 111.7C111.9 112.4 110.9 113.5 110.1 114.9C109.8 115.4 109.5 115.9 108.9 116.1C108.5 116.3 108.2 116.3 107.8 116.2C106.6 115.8 105.5 115.2 104.9 114C104.8 113.8 104.6 113.5 104.4 113.3C104 112.8 103.8 112.8 103.2 113C102.7 113.2 102.2 113.1 101.8 112.9C100.2 112.3 98.5 112.2 96.8 112.1C94.2 111.9 91.6 111.4 89.1 110.5C87.7 110 86.3 109.6 85 108.8C84.7 108.6 84.5 108.3 84.2 108.1C83.1 107.4 81.9 107 80.6 107.2C79.3 107.3 78 107.6 76.7 108C75.8 108.3 74.8 108.6 73.8 108.6C73.7 108.6 73.6 108.6 73.4 108.7C73.3 109 73.4 109.2 73.5 109.5C73.8 110.5 74 111.5 73.9 112.6C73.8 113.5 73.5 114.2 72.9 114.9C72.6 115.2 72.3 115.5 72.1 115.9C71.7 116.5 71.3 117.2 71.2 117.9C70.8 120.1 69.9 122.1 68.7 123.9C67.7 125.4 67.3 127 67.1 128.8C67.1 129.1 67 129.5 67 129.8C67 130 67 130.1 66.8 130.2C66.4 130.5 66.4 130.9 66.5 131.3C66.7 132.6 67.2 133.8 67.8 135C68.2 135.7 68.5 136.5 68.7 137.2C69 138.1 68.8 138.9 68.6 139.7C68.5 140 68.3 140.1 68 140.1C66.3 139.9 64.9 139.3 63.9 137.8C63.8 137.6 63.7 137.4 63.7 137.2C63.3 135.9 62.8 134.7 62 133.7C61.7 133.3 61.5 132.8 61.2 132.3C60.9 131.7 60.9 131.1 61.4 130.5C61.7 130.1 62 129.8 62.2 129.4C62.2 129.1 61.9 129 61.8 128.8C61.4 128.3 61.2 127.7 61.6 127.1C61.8 126.8 61.9 126.5 62.1 126.2C62.3 126 62.3 125.7 62.4 125.4C62.5 124.7 62.5 123.9 62.5 123.2C62.5 121.4 62.6 119.6 63.1 117.9C63.3 117.2 63.6 116.6 64 116.1C64.1 115.9 64.3 115.7 64.3 115.5C63.7 115.1 62.7 115.3 62.2 115.9C61.7 115.8 61.4 115.4 61.3 114.9C61.1 114.3 61 113.7 61 113.1C60.9 112 60.9 112 59.8 111.9C59 111.9 58.2 111.7 57.5 111.2C57.3 111.1 57.1 111 56.8 111.1C56.7 111.8 57.1 112.5 56.9 113.2C56.5 113.4 56.2 113.4 55.8 113.4C55 113.4 54.2 113.4 53.4 113.4C53.2 113.4 53 113.4 52.7 113.3C52 113.2 51.7 112.8 51.7 112.1C51.8 111.2 51.9 110.4 51.9 109.5C51.9 109.3 51.9 109 51.9 108.8C51.9 108.3 51.8 107.9 51.4 107.6C51.1 107.3 51 107 51 106.6C51 105.4 51.1 104.3 50.6 103.1C50.4 102.6 50.3 102.1 50.6 101.6C50.7 101.4 50.6 101.1 50.5 100.9C50.1 100.4 49.6 100.1 49 99.8C48.7 99.6 48.4 99.7 48.2 100C48 100.3 47.7 100.7 47.6 101C46.6 102.9 45.4 104.6 44.4 106.4C43.9 107.3 43.2 108.1 42.6 108.9C42.2 109.5 41.7 110.1 41.3 110.8C41 111.2 40.9 111.7 41 112.3C41.2 113.1 41 113.4 40.3 113.7C40 113.8 39.7 114 39.4 114.1C38.9 114.3 38.4 114.6 38.2 115.2C37.3 115.3 37.3 115.3 37.1 116.1C36.8 117.6 36.5 119.2 36.3 120.8C36 122.5 35.7 124.1 35.4 125.8C35.1 127.6 34.5 129.2 34 130.9C33.6 132.5 32.9 134.1 32.3 135.7C31.3 138.7 29.9 141.7 29.6 142.9C29.9 142.1 30.8 141.4 31.6 141.5C31.4 144 32.4 142.4 29.8 143.4C28.9 143.5 29.1 144.8 28.1 144.9C27.2 145.2 28.6 145.9 28.2 146.4C27.1 147.3 26.1 145.7 26.9 149.2C27.4 149.3 27.4 148.4 27.9 148.6C28.3 148.8 28.4 149.6 27.9 149.8C26.9 150.2 28 151.2 27.4 151.7C27.1 151.9 27.3 152.5 27.7 152.4C29.5 147.6 29.4 153.6 31.1 152C33.2 150 32 153 30.4 153C29.9 153 29.7 153.3 29.8 153.7C30.1 155.1 27.9 155 27.4 156.1C25.6 155.8 27.5 158.1 26.4 157.8C25.7 157.6 25.2 158 25.2 158.7C24.9 159.6 25.7 159.7 26 159C26.6 158.3 27.1 158.2 27.7 158.8C28.2 159.4 29.4 157.9 29.8 159C30.1 159.4 30.5 161.1 31 160C31.1 159.1 31.8 158.7 32 157.9C32.1 157 32.5 157.6 32.6 158.2C32.7 158.4 32.7 158.8 33.1 158.7C34.4 157.8 32.7 157.1 34.1 156.4C34.3 156 34.7 156.3 34.8 156.5C35.4 157.3 36.3 155.8 35.6 155.4C35 155 35.7 153.9 36.2 154.6C36.7 155.2 37.4 153.7 37.5 154.7C38.5 156.7 37.7 158.7 38 160.8C38.6 161.6 38.6 160.3 38.3 160C38.5 158.6 39.6 160.8 38.9 161.3C38.6 161.6 39.1 162 39.4 162C40.4 161.3 38.7 158.7 39.9 158.4C40.1 158.5 40.2 158.8 40.1 159C39.8 159.6 40.7 161.5 41.5 160.7C41.8 160.4 42 159.9 41.4 159.6C41.2 159.5 41.1 159.3 41.3 159.2C41.9 158.8 41.4 158 41.9 157.5C42.2 157.7 42.2 158 42.3 158.3C42.4 158.7 43.2 158.8 43.3 158.4C43.7 157.5 43.5 156.2 44.1 155.5C44.8 155.3 44.9 155 44.4 154.5C43.7 153.7 43.3 153.1 44.2 152.2C45.1 151.4 41.6 151.6 43.2 150.9C46.8 151.7 44 152.4 44.3 153.3C44.5 153.5 44.6 153.3 44.8 153.2C45.3 152.8 45.9 153.8 45.2 153.9C44.7 154.1 45.3 154.6 45.3 154.9C45.3 155.1 45.3 155.5 45.6 155.4C46.2 155.2 45.3 154.3 45.9 154.1C46.6 154 46.2 155.2 47 155.1C49.3 154.4 48.6 151.3 49.4 149.5C49.8 148.6 50.3 150.2 51 149.8C52.7 150.2 50 153 51.5 153.4C52.1 153.5 53 155.7 53.4 154.6C53.2 153.7 52.2 153.3 51.9 152.4C52.2 151.8 52.9 152.7 53 152.9C53.1 153.7 55.3 154.7 53.9 155.1C52.9 155.3 53.3 156.4 53.9 156.8C54.8 156.3 54.6 154.7 56 154.9C54.7 154 54.5 153.6 55.1 153C55.4 153.4 55.9 154.5 56.5 154.3C56.5 153.3 55.6 151.4 56.5 150.6C57.1 151.2 57 152.9 58.2 153C59.4 149.1 54.5 147.8 56.6 146C56.7 148.1 58.3 150.2 59.1 147C59.7 145.9 60 147.5 60.6 147.6C61 147.9 60.4 148.9 60.1 149.2C57.7 151.1 62.4 150.1 60.8 151.3C60 151.6 60.6 152.8 59.6 152.8C58.1 153.3 60.8 154.5 60.7 155C59.1 156 59.3 155.2 60.4 157.4C60.9 156.6 59.9 155.5 61.4 155.2C62.2 154.8 61.2 153.9 60.6 153.7C60.5 153.7 60.3 153.7 60.2 153.5C60.6 152.1 61.7 154.1 62.5 153.9C62.9 153.9 63.1 154 62.9 154.4C63.1 155.7 63.8 153.8 63.4 153.5C62.7 152.3 64.5 152.1 64 151.1C63.5 150.1 64.9 150 65.2 151C65.9 152.5 66.7 151.2 67.6 150.7C68.4 150.5 68.5 150.3 67.9 149.7C67.1 148.7 68.1 146.9 68 145.7C73.3 132.4 70.1 176.4 69.5 188.2H29L27.6 191.1H120.7L119.3 188.2H79.6C78.1 169.1 77.9 163.4 77.7 144C78.3 142.7 78 144.7 78.3 145.1C78.3 145.7 77.5 146.1 78.3 146.5C78.9 146.9 78.4 147.9 78.6 148.6C78.4 149 79.3 151.7 79.8 150.4C80 149.6 81.3 150.5 80.6 151C80.4 151.1 80.2 151.3 80.3 151.5C80.4 152.7 81.4 154.4 82.6 153.2C82.6 152.5 85.1 151.9 83.4 151.6C83 151.4 83.2 150.2 83.7 150.5C84.1 151 84.3 150.7 84.5 150.3C85.9 149.2 84.9 152.3 85 152.9C84.7 154.1 86.3 153.2 86.6 154.1C87.2 155.1 88.5 153.9 88.1 153C87.7 152 90 153.3 89.3 151.8C89 151.4 89.2 151 89.4 150.6C89.5 150.3 89.6 150 90 150.1C90.6 150.6 89.4 151.5 90.3 152C90.9 152.6 89.5 154.8 90.5 155.5C91.8 155.6 90.1 153.6 91.2 152.9C92.4 151.9 91.5 154.7 92.4 154.9C93.5 155 92.5 154 92.7 153.6C93.2 152.9 93.8 152.9 94.4 153.6C95.1 154.9 95.4 153 94.9 152.4C94.5 151.3 95.6 152.4 96.2 152.3C96.1 151.9 95.7 151.5 96.1 151.2C96.8 150.9 96.3 149.9 96.9 149.7C97.7 150 97.2 152.8 98.6 152.2C99 151.7 99.1 152.1 99.2 152.4C99.7 153.1 98.3 153.5 98.8 154.1C99.2 154.8 100.3 155.6 100 154.2C100.4 154.3 102.1 155.3 102.2 154.8C102.6 151 103.8 154.1 103.5 152.6C103.4 152.5 103.3 152.3 103.3 152.2C103.9 151.6 102.9 151.3 103.3 150.7C103.4 150.1 104.8 152.5 105.1 152C105.3 151.8 105.6 151.4 105.4 151C104.5 150 107 150.7 107 149.6C107.2 148.8 108.2 151.6 109.1 150.8C109.8 150.1 108 149.5 108.9 148.9C109.9 148.9 110.3 151.9 111.5 151.7C111.8 151.3 111.9 151.5 112.1 151.8C112.3 152 112.5 152.7 112.8 152.6C113.2 152 112.3 150.7 113.3 150.4C113.9 150.4 113.4 151.5 114 151.5C114.4 151.1 113.7 150.4 114.3 149.8C114.5 150.1 114.6 150.7 115 150.6C115.6 149.7 114.1 148.8 114.1 147.8C114 147.5 113.8 147 113.4 147.5C111.9 147.1 115.8 146.6 115.6 148.4C116.7 149.6 116 146.6 116.7 146.5C117.3 146.2 117.4 147.4 117.9 147.2C118.5 146 116.5 146.1 116.5 145C116.7 144.1 114.7 142.3 115.3 144.1C116 144.4 116.6 146.2 115.5 145.3C114.7 144.7 115.3 142.8 114.1 143C113.6 143.2 113.6 142.4 113.8 142.1C114.2 141.7 114.8 142.8 115.2 142.3C115.3 140.4 111.5 142.5 111.5 139.3C112.1 139.1 112.4 140.5 113.1 140.1C113.6 139.6 114.5 141.2 114.5 139.9C114.5 139.7 114.5 139.3 114.7 139.3C115 139.3 115.7 139.6 115.2 139.9C114.8 140.7 116.1 141.3 116.5 140.4C117.3 143.5 117.5 138.9 117.7 141.5C117.8 142 118.7 142.9 119.1 142.7C119.9 142.2 120.3 143 120.4 143.3C121.4 145 122.8 144.2 121 143C120.5 142.4 121.2 141.3 120.6 140.6C120.3 140 121.2 139.7 121.5 140.3C121.9 140.8 122.4 140.3 122 139.8C121.8 139.5 121.1 139.4 121.6 139C122.1 138.1 118.8 138 119.6 136.7C120 136 118.9 135 119.6 134.5C120.5 135 120.2 136.4 121.7 136C122.6 135.6 122.4 136.9 123.1 136.7C123.8 136.2 121.7 135.1 123.3 135.5C124.6 136.2 123.5 134.4 123.6 133.9C124.1 134.6 124.2 135.7 125 136.2C126 135.8 124.4 134.9 124.5 134.2C124.5 133.4 126.5 135.1 127.2 135.1C127.9 135.5 127.9 134.1 127.2 134.4C127 134.4 126.7 134.5 126.7 134.2C126.6 133.5 127.4 131.7 126.1 132.5C125.8 134.1 126.8 134.8 124.7 133C126.7 132.2 124.5 130.3 124.4 132.6C124.3 132.1 123.6 131.8 124.2 131.2C124.6 130.4 123.1 131.1 122.9 130.5C122.5 129.8 121.2 129 121.4 130.4C121.6 131 121 131 121 130.5C121 129.7 120.2 129.4 119.8 128.9C120 128.5 121.8 128.1 120.2 127.8C119.6 127.7 117.5 126.8 118 126.5C119.1 127.1 119.3 125.3 118.1 125.8C117.4 125.8 117.7 124.5 118.4 124.8C118.8 124.9 118.9 124.7 118.9 124.4C118.7 123.3 116.9 124.9 116.6 123.6C116.5 122.4 115 123.5 114.7 122.6C115.7 120.7 117.5 124.7 118 122.5C118.7 123.8 118.9 121.8 119.6 121.4C119.8 121.9 119.2 122.7 119.9 122.9C120.7 123 120.1 121.4 121 122.2C122.9 123.4 122.1 120.3 122.8 119.9C123.6 120.4 122.6 121.8 123.2 122.3C125.5 123.2 124.5 121.9 125.7 121.5C126.4 121.7 125.7 123 126.2 123.2C126.5 123.3 127.2 122.8 126.7 122.6C126.4 122.5 126.4 122.3 126.7 122.1C128.5 121.1 124.5 121.2 125.8 120.4C127.8 118.8 127.4 122.7 128.4 122.2C129.2 121.5 128.9 120.4 129.2 119.7C130.1 119.3 129.9 121.4 130.7 120.6C131 120.1 131.4 120.7 131.7 120.4C131.9 119.7 130.3 119.7 130.8 119C131.3 118.4 131.8 119.7 132.2 119.4C132.4 119.2 132.3 118.9 132.1 118.7C131 118.1 129.9 114.6 129.8 117.3C129 119.2 129.1 115.4 127.9 115.5C126.7 115.2 127.8 116.4 128.1 116.8C128.6 118.4 127.3 116.6 126.9 116.3C121.2 113.5 122.2 118.4 121.6 116.5C121.8 115.2 117.9 114.9 120.5 113.8C121 113.9 120.9 115 121.5 115.2C121.9 115.2 121.7 114.5 122.1 114.5C123.1 114.5 121.9 113.3 122.6 113.3C123.3 113.2 123.8 113.9 124.3 113.8C125 113 123.8 112.9 123.6 112.4C124.1 111.7 124.4 112.6 124.7 113C125.9 113.7 125.8 111.9 124.6 111.9C126.2 111.1 125.4 111.9 126.8 112.4C127.3 111.9 126.7 111.1 127.2 110.5C127.9 109.6 126.8 109.4 126.6 108.6C126.6 107.5 127.6 109.3 127.7 109.4C128.2 110.1 129.6 107.9 128.7 107.7C128.1 107.3 128.4 105.3 128.8 104.7C128.6 106 129.1 108.5 130.8 107.9C131.1 107.5 131.4 107.3 131.6 108C131.7 108.4 132.4 108.3 132.4 107.9C132.1 107.1 130.2 107.1 130.5 106C131 105.2 131 107 131.8 106.7C133.5 107.5 132.6 106.5 132.7 105.6C133.1 105.3 133.5 106.2 133.9 105.7C134.2 105.4 132.9 104.4 134.1 104.7C134.3 104.7 134.5 104.9 134.6 104.6C134.7 104 134.2 103.8 133.9 103.7Z" fill="#014E42"/>
<path d="M45.7 98C45.4 97.9 45.2 98 45.1 98.3C44.7 99.5 44.2 100.7 44.2 102.1C44.2 103.1 43.8 104 43.4 104.9C42.7 106.3 41.8 107.4 40.9 108.7C40.7 109 40.4 109.4 40.3 109.7C40.2 109.9 40.1 110.2 40.3 110.4C40.6 110.2 40.8 109.9 41 109.7C42.5 107.6 44 105.4 45.4 103.2C45.8 102.5 46.3 101.9 46.8 101.3C47.2 100.8 47.5 100.4 47.6 99.8C47.7 99.5 47.7 99.3 47.5 99.1C47 98.5 46.4 98.2 45.7 98Z" fill="#014E42"/>
<path d="M50.7999 101.7C50.4999 102.7 50.7999 103.6 51.3999 104C51.7999 103.7 51.8999 103.5 51.7999 103.2C51.5999 102.6 51.2999 102 50.7999 101.7Z" fill="#014E42"/>
<path d="M49.4 86.1C49.2 86.4 49.2 86.6 49.4 86.9C49.5 87 49.7 87 49.8 86.9C50 86.8 50.1 86.6 50 86.4C50 86.1 49.7 86.1 49.4 86.1Z" fill="#014E42"/>
<path d="M63.3 112.2C63.2 113 63.7 113.6 63.7 114.4C63.9 114.6 64.1 114.7 64.4 114.7C64.6 114.4 64.6 114.1 64.5 113.8C64.3 113.4 64.1 112.9 63.9 112.5C63.7 112.3 63.6 112.1 63.3 112.2Z" fill="#014E42"/>
<path d="M59.5 90.4C59.8 90.1 60.2 89.9 60.5 89.6C60.4 88.9 59.9 88.4 59.4 88C59.1 87.7 58.7 88 58.3 88C58.2 89 58.3 89.8 58.9 90.4C59.1 90.5 59.3 90.6 59.5 90.4Z" fill="#014E42"/>
<path d="M61.1 111.9C61 112.8 61 113.6 61.3 114.4C61.5 114.9 61.5 115 62.2 115C62.2 114.3 63 114.8 63.3 114.4C63.1 113.9 62.7 114.3 62.4 114.1C62.3 113.9 62.4 113.7 62.5 113.5C62.6 113.3 62.6 113.1 62.5 113C62.2 112.8 62.1 112.5 61.9 112.3C61.7 112.1 61.5 111.9 61.1 111.9Z" fill="#014E42"/>
<path d="M62.2 98.2C62.5 98.6 62.9 99 63.2 99.5C63.3 99.6 63.3 99.7 63.6 99.6C63.6 98.6 62.9 98.1 62.4 97.4C61.9 97.7 61.9 97.8 62.2 98.2Z" fill="#014E42"/>
<path d="M56.5 82.1C56.2 81.1 55.9 80 55.7 78.9C55.4 78.9 55.3 79.2 55.3 79.4C55.3 79.8 55.2 80.1 55.2 80.5C55.2 82.3 55.1 84.1 54.6 85.8C54.4 86.5 54.3 87.2 54.2 87.9C54.2 88.3 54.3 88.5 54.6 88.6C54.8 88.5 54.9 88.3 55 88.1C55.5 87.3 55.9 86.3 57 86C57.3 85.9 57.4 85.5 57.3 85.2C56.9 84.2 56.8 83.1 56.5 82.1Z" fill="#014E42"/>
<path d="M65.7 113.2C65.9 112.8 65.9 112.6 65.5 112.4C65.1 112.1 64.6 112.1 64.1 112.2C64.5 112.8 64.5 113.5 64.8 114C65.2 113.8 65.4 113.7 65.7 113.2Z" fill="#014E42"/>
</svg>
